<svg width="207" height="294" viewBox="0 0 207 294" fill="none" xmlns="http://www.w3.org/2000/svg">
<g clip-path="url(#clip0)">
<g opacity="0.4">
<path opacity="0.4" d="M24.6012 138.848C24.603 140.363 25.0036 141.851 25.7626 143.163C26.5217 144.474 27.6125 145.562 28.9255 146.318L213.443 252.882C214.748 253.63 216.226 254.024 217.73 254.024C219.234 254.024 220.712 253.63 222.017 252.882C223.341 252.133 224.445 251.047 225.214 249.734C225.984 248.421 226.393 246.928 226.4 245.406C226.406 243.884 226.011 242.388 225.253 241.068C224.495 239.749 223.401 238.653 222.083 237.892L37.5658 131.395C36.2543 130.637 34.7666 130.237 33.2518 130.235C31.737 130.233 30.2483 130.63 28.935 131.385C27.6218 132.14 26.5301 133.227 25.7695 134.537C25.0088 135.847 24.6059 137.333 24.6012 138.848Z" fill="#D6D8E5"/>
</g>
<path d="M12.4914 -113.53C12.3088 -113.58 12.1345 -113.638 11.9519 -113.679L11.4539 -113.787L10.8065 -113.887H10.4413C10.1757 -113.887 9.91843 -113.887 9.66943 -113.887H9.48683C9.18289 -113.87 8.88054 -113.831 8.58211 -113.771L8.3746 -113.721C8.14682 -113.671 7.9223 -113.607 7.70232 -113.53L7.49481 -113.455C7.2103 -113.349 6.93303 -113.224 6.66481 -113.082L18.7911 -120.17H18.8575C19.0546 -120.285 19.2599 -120.384 19.4717 -120.469H19.5962L19.7954 -120.543C19.9033 -120.543 20.0029 -120.626 20.1108 -120.651L20.4677 -120.734L20.6835 -120.784C20.7221 -120.789 20.7611 -120.789 20.7997 -120.784C21.0414 -120.827 21.2852 -120.858 21.5301 -120.875H21.7957C21.9866 -120.875 22.1775 -120.875 22.3684 -120.875H22.5759H22.9411H23.2814L23.5802 -120.809L24.0782 -120.701L24.2857 -120.676L24.5596 -120.585L25.3896 -120.286C25.4892 -120.245 25.5888 -120.228 25.6967 -120.178L25.871 -120.095C26.3946 -119.871 26.9045 -119.616 27.3982 -119.332L231.271 -1.66259L219.178 5.36752L15.3632 -112.302C14.8667 -112.586 14.354 -112.841 13.8277 -113.065L13.3546 -113.256L12.4914 -113.53Z" fill="#E9EAF4"/>
<path d="M15.3634 -112.302C8.63205 -116.186 3.17065 -113.073 3.14575 -105.338L2.70586 50.7021C2.70586 58.4294 8.10915 67.8334 14.8405 71.7178L218.655 189.42C225.378 193.304 230.848 190.192 230.865 182.465L231.313 26.4247C231.313 18.689 225.901 9.28514 219.178 5.40074L15.3634 -112.302Z" fill="white"/>
<path d="M27.8963 2.92715C26.9501 2.38765 26.2363 2.25486 25.6636 2.55366C25.3698 2.73732 25.1353 3.00178 24.9881 3.31534C24.8409 3.62891 24.7872 3.97827 24.8336 4.32156C24.8336 4.82313 24.912 5.32161 25.066 5.79896C25.2212 6.28009 25.43 6.74225 25.6885 7.17675C25.9458 7.60005 26.3774 8.25576 27.0165 9.14386C27.7016 10.0462 28.2965 11.0137 28.7926 12.0323C29.0096 12.4864 29.1685 12.966 29.2657 13.4599L26.3773 11.7999V10.3225L24.792 9.40116L24.8585 12.7627L31.2246 16.4396C31.2432 15.6042 31.1708 14.7693 31.0088 13.9496C30.8567 13.265 30.6284 12.5996 30.3281 11.9659C29.9335 11.108 29.4844 10.2763 28.9836 9.47585C28.2283 8.23085 27.7385 7.36765 27.4978 6.85305C27.2711 6.39302 27.1493 5.88844 27.141 5.37565C27.1245 5.24579 27.1409 5.11387 27.1887 4.99203C27.2366 4.8702 27.3144 4.76236 27.4148 4.67845C27.5198 4.6163 27.6413 4.58775 27.7629 4.59665C27.8846 4.60555 28.0006 4.65148 28.0954 4.72825C28.5059 4.9663 28.8179 5.34304 28.9752 5.79065C29.189 6.4412 29.2928 7.12286 29.2823 7.80756L31.1001 8.76205C31.134 7.83386 30.9933 6.90755 30.685 6.03136C30.423 5.33171 30.0285 4.68918 29.523 4.13896C29.0454 3.65478 28.4969 3.24616 27.8963 2.92715Z" fill="#767070"/>
<path d="M18.6417 -2.21045L18.6168 7.35945L17.3137 6.60416L17.3054 8.44676L22.1609 11.2522L22.1692 9.40955L20.7997 8.62105L20.8163 0.877152L22.2771 1.71546V-0.11055L18.6417 -2.21045Z" fill="#767070"/>
<path d="M28.3196 29.3131C27.3817 28.7653 26.6596 28.6408 26.0952 28.923C25.8001 29.1094 25.565 29.3768 25.4178 29.6932C25.2706 30.0097 25.2176 30.3618 25.2652 30.7075C25.2637 31.2065 25.3422 31.7025 25.4976 32.1766C25.656 32.6592 25.8646 33.1238 26.1201 33.5627C26.3691 33.986 26.809 34.6251 27.4398 35.5215C28.1273 36.4209 28.725 37.3856 29.2243 38.4016C29.427 38.8714 29.5692 39.3651 29.6476 39.8707L26.7592 38.2107V36.7001L25.1739 35.7788L25.2403 39.1403L31.5898 42.8089C31.6133 41.9907 31.5464 41.1723 31.3906 40.3687C31.2309 39.6863 31.0029 39.0217 30.71 38.385C30.3084 37.5307 29.8595 36.6994 29.3654 35.895C28.8266 35.0461 28.3308 34.1708 27.8797 33.2722C27.6493 32.8165 27.5272 32.3138 27.5228 31.8031C27.5079 31.6709 27.525 31.537 27.5726 31.4128C27.6203 31.2886 27.6972 31.1776 27.7967 31.0893C27.9031 31.0306 28.0246 31.0047 28.1458 31.015C28.267 31.0254 28.3823 31.0715 28.4773 31.1474C28.869 31.3943 29.1625 31.77 29.3073 32.2098C29.527 32.8593 29.6364 33.5411 29.631 34.2267L31.4487 35.1812C31.4833 34.253 31.3425 33.3266 31.0337 32.4505C30.7625 31.7579 30.3689 31.1197 29.8717 30.5664C29.4198 30.0735 28.8966 29.6511 28.3196 29.3131Z" fill="#767070"/>
<path d="M18.4757 29.2302C17.3221 29.0725 16.7411 29.6784 16.7411 31.0479C16.7412 32.0896 17.0471 33.1083 17.6209 33.9778C18.2748 34.9874 19.1707 35.8176 20.227 36.3931C21.3724 37.0571 22.244 37.2231 22.8167 36.9326C23.1183 36.7225 23.3556 36.4328 23.5022 36.0957C23.6487 35.7586 23.6988 35.3874 23.6467 35.0236C23.6234 34.3063 23.4565 33.601 23.1556 32.9494C22.8548 32.2979 22.4262 31.7133 21.8953 31.2305C22.8747 31.1641 23.3645 30.5748 23.3645 29.4543C23.3511 28.5046 23.0628 27.5792 22.5345 26.79C21.9413 25.897 21.1448 25.1575 20.2104 24.632C19.1895 24.0427 18.4011 23.8684 17.8533 24.0925C17.3055 24.3166 17.0233 24.8727 17.0233 25.7525C17.094 27.044 17.6068 28.272 18.4757 29.2302ZM19.2227 33.5545C18.9705 33.0941 18.8391 32.5772 18.841 32.0522C18.8174 31.8544 18.8404 31.6538 18.9081 31.4664C18.9759 31.2791 19.0864 31.1102 19.2311 30.9732C19.4718 30.774 19.8037 30.7989 20.2104 31.0396C20.6232 31.2908 20.9569 31.6533 21.1732 32.0854C21.424 32.555 21.5525 33.0802 21.5468 33.6126C21.5751 33.8079 21.5559 34.0072 21.4909 34.1936C21.4259 34.38 21.317 34.5479 21.1732 34.6833C21.0178 34.763 20.8426 34.796 20.6688 34.7783C20.495 34.7607 20.3301 34.6931 20.1939 34.5837C19.7792 34.3395 19.4424 33.9826 19.2227 33.5545ZM21.0737 27.288C21.297 27.6973 21.4086 28.1581 21.3973 28.6243C21.4142 28.7864 21.3946 28.9503 21.34 29.104C21.2855 29.2576 21.1973 29.3971 21.082 29.5124C20.8662 29.6784 20.584 29.6535 20.252 29.446C19.8959 29.2246 19.6085 28.9085 19.422 28.533C19.2164 28.1355 19.1109 27.6939 19.1148 27.2465C19.0949 27.0804 19.1113 26.912 19.1629 26.7529C19.2145 26.5939 19.3001 26.4479 19.4137 26.3252C19.6212 26.1675 19.9117 26.1841 20.2437 26.3916C20.5953 26.611 20.8819 26.9205 21.0737 27.288Z" fill="#767070"/>
<g opacity="0.8">
<path opacity="0.8" d="M179.786 38.725C178.848 38.1855 178.126 38.0527 177.562 38.3349C177.27 38.5249 177.038 38.7929 176.891 39.1083C176.745 39.4238 176.689 39.7741 176.732 40.1194C176.74 40.6238 176.832 41.1232 177.006 41.5968C177.164 42.0767 177.373 42.5385 177.628 42.9746C177.877 43.3952 178.317 44.0508 178.948 44.9417C179.643 45.839 180.241 46.8072 180.733 47.8301C180.937 48.2964 181.079 48.7875 181.156 49.2909L178.259 47.6309V46.1452L176.674 45.2322L176.749 48.5937L183.106 52.2623C183.12 51.444 183.05 50.6264 182.899 49.8221C182.739 49.1375 182.505 48.4723 182.202 47.8384C181.807 46.9838 181.363 46.1524 180.874 45.3484C180.331 44.4976 179.832 43.6194 179.38 42.7173C179.148 42.2648 179.026 41.7646 179.023 41.2565C179.008 41.1243 179.025 40.9904 179.073 40.8662C179.12 40.742 179.197 40.631 179.297 40.5427C179.403 40.4839 179.523 40.4572 179.644 40.4661C179.765 40.4749 179.881 40.5189 179.977 40.5925C180.367 40.8455 180.659 41.2229 180.807 41.6632C181.028 42.3122 181.135 42.9946 181.123 43.6801L182.94 44.6263C182.976 43.6973 182.832 42.7702 182.517 41.8956C182.257 41.2072 181.875 40.5716 181.388 40.0198C180.924 39.5087 180.383 39.072 179.786 38.725Z" fill="#3A4151"/>
<path opacity="0.8" d="M148.977 20.9296C147.997 20.3652 147.242 20.1909 146.694 20.415C146.146 20.6391 145.864 21.245 145.864 22.1414C145.902 23.4395 146.433 24.6742 147.35 25.5942C146.121 25.3369 145.507 25.893 145.499 27.2542C145.506 28.3473 145.832 29.4146 146.437 30.3252C147.045 31.272 147.87 32.0601 148.844 32.6243C150.969 33.8527 152.12 33.2994 152.297 30.9643L150.379 29.6778C150.379 31.0058 149.915 31.4291 149.06 30.9394C148.654 30.688 148.327 30.3288 148.113 29.9019C147.883 29.4611 147.761 28.9718 147.757 28.4743C147.736 28.2889 147.758 28.1011 147.821 27.9256C147.885 27.75 147.987 27.5913 148.122 27.4617C148.354 27.2625 148.719 27.304 149.192 27.5779C149.309 27.6526 149.45 27.7439 149.641 27.8518V25.9345C149.136 25.6632 148.71 25.2657 148.404 24.7808C148.165 24.3932 148.034 23.9493 148.022 23.4943C148.006 23.356 148.025 23.2159 148.077 23.0868C148.129 22.9577 148.213 22.8438 148.321 22.7556C148.443 22.6934 148.581 22.6673 148.718 22.6806C148.854 22.6938 148.985 22.7458 149.093 22.8303C149.449 23.0508 149.736 23.3669 149.921 23.7427C150.106 24.1184 150.181 24.5385 150.139 24.9551L152.014 25.9096C151.983 24.8822 151.67 23.8832 151.11 23.0212C150.579 22.161 149.847 21.4431 148.977 20.9296Z" fill="#3A4151"/>
<path opacity="0.8" d="M113.976 9.20189L114.938 9.75799V11.2188L114.108 10.7374V12.3974L118.092 14.6965V13.0365L116.997 12.4057V10.9698L120.632 13.0697C120.766 12.6652 120.947 12.278 121.172 11.916L116.922 2.44569L114.972 1.3252V8.22249L114.009 7.66639L113.976 9.20189ZM116.988 9.38449V5.40049L119.437 10.8038L116.947 9.38449" fill="#3A4151"/>
<path opacity="0.8" d="M208.106 86.4997C206.952 86.3337 206.371 86.9396 206.363 88.3257C206.371 89.3661 206.677 90.3825 207.243 91.2556C207.904 92.2545 208.799 93.0776 209.849 93.6543C211.003 94.3183 211.857 94.4843 212.438 94.1938C212.751 93.9917 212.998 93.7047 213.153 93.3665C213.307 93.0283 213.362 92.653 213.31 92.2848C213.291 91.5679 213.126 90.8624 212.825 90.2115C212.524 89.5607 212.093 88.9782 211.559 88.5C212.53 88.417 213.028 87.836 213.028 86.7155C213.023 85.7696 212.734 84.8469 212.198 84.0678C211.613 83.1662 210.819 82.42 209.882 81.8932C208.861 81.3039 208.073 81.1296 207.517 81.3537C206.96 81.5778 206.687 82.1339 206.687 83.0137C206.741 84.3052 207.243 85.5376 208.106 86.4997ZM208.853 90.8157C208.597 90.3567 208.466 89.8388 208.471 89.3134C208.449 89.1171 208.471 88.9184 208.536 88.7317C208.601 88.545 208.706 88.3751 208.845 88.2344C209.102 88.0352 209.426 88.0601 209.832 88.2925C210.245 88.5471 210.579 88.9122 210.795 89.3466C211.045 89.8167 211.177 90.3412 211.177 90.8738C211.205 91.0693 211.184 91.2687 211.116 91.4541C211.047 91.6395 210.935 91.8051 210.787 91.9362C210.639 92.0257 210.466 92.0667 210.293 92.0533C210.121 92.0399 209.957 91.9728 209.824 91.8615C209.408 91.6111 209.072 91.2486 208.853 90.8157ZM210.695 84.5492C210.916 84.9593 211.025 85.4201 211.011 85.8855C211.031 86.0459 211.013 86.2086 210.96 86.3612C210.907 86.5137 210.819 86.652 210.704 86.7653C210.496 86.9396 210.214 86.9147 209.874 86.7072C209.517 86.4872 209.229 86.1707 209.044 85.7942C208.836 85.4003 208.727 84.9615 208.728 84.516C208.709 84.3474 208.728 84.1767 208.782 84.016C208.837 83.8553 208.926 83.7086 209.044 83.5864C209.235 83.4204 209.525 83.4453 209.874 83.6694C210.225 83.8817 210.512 84.1859 210.704 84.5492" fill="#3A4151"/>
<path opacity="0.8" d="M177.388 64.4798C176.798 65.0359 176.483 66.3722 176.475 68.4555C176.475 72.3897 177.689 75.0595 180.118 76.465C180.394 76.673 180.716 76.8129 181.056 76.8735C181.396 76.934 181.746 76.9135 182.077 76.8136C182.592 76.5895 182.907 75.9836 182.957 75.0208L181.297 73.8588C181.098 74.6888 180.716 74.9793 180.16 74.6888C179.272 74.1825 178.765 72.8047 178.657 70.5388C179.128 71.2659 179.758 71.8761 180.5 72.3233C180.769 72.5268 181.09 72.6477 181.426 72.6713C181.763 72.6949 182.098 72.6201 182.392 72.4561C182.907 72.1241 183.173 71.402 183.173 70.2981C183.178 69.1632 182.892 68.0459 182.343 67.0528C181.817 66.0316 181.007 65.1842 180.01 64.6126C178.848 63.9652 177.993 63.9237 177.388 64.4798ZM178.616 68.8954V68.7709C178.582 68.0822 178.707 67.395 178.981 66.7623C179.23 66.2975 179.587 66.2062 180.093 66.4967C180.437 66.7206 180.699 67.0496 180.84 67.4346C181.048 67.9258 181.155 68.4535 181.156 68.9867C181.186 69.4012 181.074 69.8136 180.84 70.157C180.633 70.406 180.317 70.3977 179.902 70.157C179.402 69.8251 178.973 69.3961 178.641 68.8954" fill="#3A4151"/>
<path opacity="0.8" d="M152.18 48.9089L152.147 58.4871L150.861 57.7401L150.852 59.5661L155.7 62.3632V60.5372L154.33 59.7487L154.355 51.9882L155.807 52.8348L155.816 51.0088L152.18 48.9089Z" fill="#3A4151"/>
<path opacity="0.8" d="M142.735 44.7924C142.162 45.4813 141.905 46.7678 141.905 48.6436C141.843 50.3074 142.126 51.9661 142.735 53.5157C143.228 54.7583 144.118 55.803 145.267 56.4871C146.373 57.1345 147.22 57.1179 147.806 56.4373C148.396 55.765 148.694 54.4868 148.694 52.5861C148.743 50.9366 148.461 49.2941 147.864 47.7555C147.377 46.491 146.476 45.429 145.308 44.7426C144.171 44.0869 143.324 44.1035 142.735 44.7924ZM144.329 52.694C144.21 51.7857 144.146 50.871 144.138 49.955C144.107 48.9927 144.199 48.0304 144.412 47.0915C144.586 46.5188 144.885 46.3445 145.291 46.5769C145.537 46.7628 145.742 46.9973 145.893 47.2657C146.045 47.5341 146.139 47.8308 146.171 48.1373C146.369 49.1709 146.455 50.2227 146.429 51.2747C146.468 52.2345 146.376 53.1951 146.155 54.1299C145.98 54.7109 145.682 54.8686 145.325 54.6362C145.025 54.4089 144.782 54.1153 144.615 53.7783C144.448 53.4413 144.361 53.0701 144.362 52.694" fill="#3A4151"/>
<path opacity="0.8" d="M120.375 30.2009L120.35 39.7708L119.047 39.0238L119.039 40.8581L123.894 43.6635L123.902 41.8209L122.533 41.0324L122.549 33.2885L124.01 34.1351L124.019 32.3091L120.375 30.2009Z" fill="#3A4151"/>
<path opacity="0.8" d="M112.316 25.5444L112.282 35.1143L110.996 34.3673L110.988 36.2099L115.826 39.007L115.835 37.1644L114.465 36.3759L114.49 28.632L115.943 29.4703L115.951 27.6443L112.316 25.5444Z" fill="#3A4151"/>
<path opacity="0.8" d="M89.3412 12.6296L89.3163 22.2078L88.0215 21.4608L88.0132 23.2868L92.8687 26.0922L92.877 24.2662L91.5075 23.4777L91.5324 15.7172L92.9849 16.5638L92.9932 14.7295L89.3412 12.6296Z" fill="#3A4151"/>
<path opacity="0.8" d="M82.4853 8.47978C81.5308 7.92368 80.7838 7.79918 80.2443 8.08138C79.9507 8.26924 79.7168 8.53685 79.5698 8.85288C79.4228 9.16892 79.3689 9.52031 79.4143 9.86588C79.4134 10.3662 79.4976 10.863 79.6633 11.335C79.8131 11.8181 80.0163 12.2831 80.2692 12.7211C80.5182 13.1444 80.9581 13.7835 81.5889 14.6799C82.2802 15.5797 82.8781 16.5475 83.3735 17.5683C83.5815 18.0368 83.7266 18.5308 83.8051 19.0374L80.9083 17.3774V15.8917L79.323 14.9787L79.3977 18.3402L85.7555 22.0088C85.7748 21.1906 85.7081 20.3728 85.5564 19.5686C85.3947 18.8948 85.1667 18.2386 84.8757 17.6098C84.4729 16.7561 84.024 15.9249 83.5312 15.1198C82.7759 13.8748 82.2778 13.0116 82.0371 12.4887C81.8169 12.0326 81.698 11.5343 81.6886 11.0279C81.6726 10.8963 81.6884 10.7629 81.7346 10.6387C81.7808 10.5145 81.8561 10.4032 81.9541 10.3141C82.0595 10.2531 82.1807 10.2252 82.3021 10.2341C82.4235 10.2429 82.5394 10.2882 82.6348 10.3639C83.0398 10.6098 83.3477 10.988 83.5063 11.4346C83.7267 12.0839 83.8362 12.7658 83.83 13.4515L85.656 14.406C85.6843 13.474 85.5379 12.545 85.2243 11.667C84.9531 10.9769 84.5595 10.3414 84.0624 9.79118C83.6083 9.27443 83.0762 8.83193 82.4853 8.47978Z" fill="#3A4151"/>
<path opacity="0.8" d="M58.3738 -5.24854L58.3489 4.32966L57.0541 3.58266L57.0458 5.40866L61.893 8.20576L61.9013 6.37976L60.5318 5.59126L60.5484 -2.16924L62.0092 -1.32264V-3.14864L58.3738 -5.24854Z" fill="#3A4151"/>
<path opacity="0.8" d="M51.6757 -9.31539C51.3559 -9.56281 50.9861 -9.73772 50.592 -9.82802C50.1979 -9.91831 49.7888 -9.92182 49.3932 -9.8383C48.8537 -9.6142 48.5632 -9.00829 48.5632 -8.10359C48.5943 -6.80734 49.1199 -5.57205 50.0323 -4.6508C48.8039 -4.9081 48.1897 -4.352 48.1814 -2.9908C48.1877 -1.89632 48.5169 -0.828037 49.1276 0.0802116C49.7384 1.03217 50.5661 1.82577 51.5429 2.39591C53.6677 3.62431 54.8048 3.05991 54.9791 0.735906L53.0618 -0.550597C53.0618 0.769103 52.597 1.18411 51.7504 0.702711C51.3435 0.459156 51.0174 0.101207 50.8125 -0.326493C50.5693 -0.769107 50.4409 -1.26565 50.439 -1.7707C50.4203 -1.95479 50.4435 -2.14073 50.5067 -2.31464C50.5699 -2.48854 50.6716 -2.64591 50.8042 -2.77499C51.0532 -2.95759 51.4018 -2.92439 51.8832 -2.64219C51.9911 -2.57579 52.1322 -2.50109 52.3231 -2.37659V-4.30219C51.8182 -4.57354 51.3921 -4.97101 51.0864 -5.45589C50.8453 -5.84495 50.716 -6.29297 50.7129 -6.7507C50.6953 -6.89033 50.7135 -7.03215 50.7658 -7.16282C50.818 -7.2935 50.9027 -7.40873 51.0117 -7.49769C51.1355 -7.55225 51.2717 -7.57257 51.406 -7.55651C51.5403 -7.54045 51.6679 -7.4886 51.7753 -7.40639C52.1324 -7.18595 52.4209 -6.87036 52.6086 -6.49503C52.7963 -6.11971 52.8756 -5.69951 52.8377 -5.28159L54.6886 -4.3769C54.6569 -5.40432 54.344 -6.40337 53.7839 -7.26529C53.2599 -8.1112 52.5359 -8.81524 51.6757 -9.31539Z" fill="#3A4151"/>
<path opacity="0.8" d="M203.367 104.386V107.075L204.811 107.905L204.96 107.134L207.508 108.611L207.624 111.4C207.198 110.732 206.632 110.166 205.964 109.74C204.993 109.175 204.246 109.109 203.707 109.524C203.408 109.798 203.177 110.138 203.033 110.517C202.889 110.896 202.835 111.303 202.877 111.707C202.871 112.85 203.157 113.975 203.707 114.977C204.297 116.085 205.196 116.996 206.296 117.6C207.292 118.173 208.073 118.339 208.62 118.073C208.921 117.9 209.174 117.654 209.355 117.359C209.536 117.063 209.64 116.726 209.658 116.38L207.782 115.043C207.649 116.064 207.218 116.355 206.462 115.923C206.035 115.675 205.691 115.305 205.475 114.861C205.244 114.359 205.13 113.811 205.143 113.259C205.143 111.906 205.574 111.474 206.438 111.972C206.993 112.357 207.409 112.91 207.624 113.549H209.21L208.944 107.598L203.367 104.386Z" fill="#3A4151"/>
<path opacity="0.8" d="M183.056 92.866L183.031 102.436L181.728 101.689L181.72 103.515L186.576 106.312L186.584 104.486L185.214 103.697L185.239 95.9536L186.692 96.7919L186.7 94.9659L183.056 92.866Z" fill="#3A4151"/>
<path opacity="0.8" d="M173.578 92.401C173.047 92.6998 172.748 93.4303 172.748 94.5757C172.721 95.7632 173.008 96.9367 173.578 97.9786C174.095 98.9249 174.861 99.7115 175.794 100.253C176.997 100.95 177.894 101 178.491 100.419C179.089 99.8378 179.371 98.5348 179.38 96.5594C179.458 94.7858 179.123 93.0182 178.4 91.3967C177.813 90.1597 176.871 89.1253 175.694 88.4254C174.034 87.4681 173.105 87.9439 172.906 89.8529L174.566 91.015C174.781 90.185 175.163 89.9028 175.736 90.2348C176.264 90.5998 176.643 91.1415 176.807 91.762C177.077 92.6013 177.211 93.4782 177.205 94.3599C176.783 93.6343 176.179 93.0308 175.454 92.6085C175.188 92.4089 174.874 92.2843 174.544 92.2478C174.214 92.2113 173.88 92.2642 173.578 92.401ZM175.088 97.5138C174.874 96.9876 174.775 96.4216 174.798 95.8538C174.798 95.2645 174.906 94.8745 175.155 94.7002C175.278 94.6191 175.422 94.5759 175.57 94.5759C175.717 94.5759 175.862 94.6191 175.985 94.7002C176.476 95.0112 176.897 95.421 177.222 95.9036C177.283 96.712 177.15 97.5234 176.831 98.2691C176.591 98.5928 176.259 98.6344 175.819 98.3771C175.472 98.1558 175.205 97.8303 175.055 97.4475" fill="#3A4151"/>
<path opacity="0.8" d="M151.981 74.8713L151.956 84.4412L150.653 83.6942L150.645 85.5202L155.5 88.3173L155.509 86.4913L154.139 85.7028L154.156 77.9589L155.617 78.7972V76.9795L151.981 74.8713Z" fill="#3A4151"/>
<path opacity="0.8" d="M141.947 69.0696V70.4723C142.604 71.9063 143.107 73.4059 143.449 74.946C143.904 76.5686 144.158 78.2412 144.204 79.926L142.943 79.1956V81.0216L147.732 83.7855V81.9595L146.487 81.2374C146.372 79.7234 146.093 78.2262 145.657 76.772C145.234 75.1386 144.679 73.5425 143.997 71.9995L146.545 73.4686V75.0705L148.138 75.9835V72.6137L141.947 69.0696Z" fill="#3A4151"/>
<path opacity="0.8" d="M120.806 56.5701L120.782 66.1566L119.478 65.4013L119.47 67.2273L124.326 70.0327L124.334 68.2067L122.964 67.4182L122.981 59.6577L124.442 60.496V58.67L120.806 56.5701Z" fill="#3A4151"/>
<path opacity="0.8" d="M112.15 56.9932C110.996 56.8355 110.423 57.4497 110.415 58.8192C110.419 59.8603 110.724 60.878 111.295 61.7491C111.953 62.7549 112.848 63.5842 113.901 64.1644C115.046 64.8201 115.909 64.9944 116.49 64.7039C116.791 64.4932 117.028 64.2033 117.175 63.8664C117.321 63.5295 117.372 63.1587 117.32 62.7949C117.299 62.076 117.133 61.3688 116.832 60.7157C116.531 60.0625 116.102 59.4767 115.569 58.9935C116.54 58.9271 117.038 58.3461 117.047 57.2256C117.037 56.2754 116.748 55.3491 116.217 54.5613C115.623 53.6638 114.823 52.921 113.884 52.395C112.872 51.814 112.091 51.6231 111.544 51.8638C111.248 52.0172 111.008 52.2605 110.859 52.5588C110.709 52.857 110.659 53.1949 110.714 53.5238C110.774 54.8122 111.281 56.0393 112.15 56.9932ZM112.905 61.3258C112.646 60.8679 112.514 60.3493 112.523 59.8235C112.499 59.6271 112.52 59.4277 112.584 59.2406C112.649 59.0536 112.756 58.8838 112.897 58.7445C113.045 58.6488 113.22 58.6029 113.396 58.6133C113.572 58.6238 113.74 58.6901 113.876 58.8026C114.293 59.0545 114.63 59.4202 114.847 59.8567C115.097 60.3268 115.229 60.8513 115.229 61.3839C115.258 61.5795 115.238 61.7793 115.17 61.965C115.101 62.1507 114.988 62.3162 114.839 62.4463C114.59 62.6206 114.274 62.5874 113.868 62.355C113.454 62.1118 113.12 61.7544 112.905 61.3258ZM114.756 55.051C114.985 55.4585 115.099 55.9201 115.088 56.3873C115.102 56.55 115.081 56.714 115.025 56.8674C114.969 57.0209 114.88 57.1602 114.764 57.2754C114.557 57.4414 114.266 57.4165 113.934 57.209C113.577 56.9931 113.288 56.6791 113.104 56.3043C112.897 55.9071 112.789 55.4658 112.789 55.0178C112.765 54.8503 112.782 54.6796 112.837 54.5195C112.891 54.3595 112.983 54.2146 113.104 54.0965C113.303 53.9222 113.585 53.9471 113.934 54.1629C114.288 54.3761 114.575 54.6836 114.764 55.051" fill="#3A4151"/>
<path opacity="0.8" d="M89.3578 38.7664L89.3329 48.3363L88.0215 47.5892V49.407L92.877 52.2124V50.3864L91.5075 49.5978L91.5324 41.854L92.9932 42.6923V40.8663L89.3578 38.7664Z" fill="#3A4151"/>
<path opacity="0.8" d="M80.1032 34.5833C79.4973 35.1477 79.1985 36.4757 79.1902 38.559C79.1902 42.4932 80.402 45.1603 82.8256 46.5602C83.1029 46.7691 83.4252 46.9101 83.7668 46.9721C84.1084 47.0341 84.4597 47.0152 84.7927 46.9171C85.3073 46.693 85.6227 46.0871 85.6227 45.1243L83.9627 43.9706C83.7552 44.8006 83.3817 45.0828 82.8256 44.8006C81.9375 44.2943 81.4312 42.9165 81.315 40.6506C81.784 41.3747 82.4147 41.9799 83.1576 42.4185C83.4234 42.6243 83.7442 42.7467 84.0795 42.7704C84.4148 42.794 84.7496 42.7178 85.0417 42.5513C85.5729 42.2276 85.8717 41.5055 85.8717 40.4016C85.8743 39.267 85.5888 38.1503 85.0417 37.1563C84.5193 36.117 83.7061 35.2519 82.7011 34.6663C81.5557 34.0687 80.7257 34.0272 80.1032 34.5833ZM81.3316 39.0072V38.891C81.2941 38.1975 81.4162 37.5047 81.6885 36.8658C81.9292 36.401 82.3027 36.3097 82.8007 36.6002C83.1501 36.8235 83.4157 37.1562 83.556 37.5464C83.7487 38.0351 83.8446 38.5566 83.8382 39.0819C83.8707 39.4967 83.7593 39.91 83.5228 40.2522C83.3153 40.5012 83.0082 40.5012 82.5766 40.2522C82.0834 39.9236 81.6602 39.5004 81.3316 39.0072Z" fill="#3A4151"/>
<path opacity="0.8" d="M59.1457 21.2616C58.1912 20.7138 57.4442 20.581 56.913 20.8632C56.6223 21.0538 56.3905 21.3219 56.2439 21.6372C56.0972 21.9525 56.0415 22.3024 56.083 22.6477C56.0874 23.1529 56.1714 23.6543 56.332 24.1334C56.4896 24.6096 56.6954 25.0684 56.9462 25.5029C57.1952 25.9262 57.6351 26.5736 58.2659 27.47C58.9576 28.3711 59.5582 29.3386 60.0587 30.3584C60.2625 30.8278 60.4048 31.3216 60.482 31.8275L57.577 30.1675V28.6818L55.9834 27.7605L56.0664 31.0805L62.4159 34.7491C62.4399 33.9335 62.373 33.1179 62.2167 32.3172C62.0579 31.6308 61.827 30.9631 61.5278 30.3252C61.1264 29.4723 60.6803 28.6411 60.1915 27.8352C59.6462 26.9902 59.1502 26.1145 58.7058 25.2124C58.4751 24.7564 58.3502 24.2542 58.3406 23.7433C58.3247 23.6117 58.3405 23.4783 58.3867 23.3541C58.4329 23.2299 58.5082 23.1186 58.6062 23.0295C58.7128 22.9726 58.8333 22.9471 58.9537 22.9559C59.0742 22.9647 59.1897 23.0075 59.2868 23.0793C59.6989 23.3231 60.0107 23.7056 60.1666 24.1583C60.3784 24.8069 60.4876 25.4846 60.4903 26.1669L62.308 27.1214C62.3395 26.1926 62.1959 25.2663 61.8847 24.3907C61.6147 23.6974 61.221 23.059 60.7227 22.5066C60.2632 22.014 59.7315 21.5942 59.1457 21.2616Z" fill="#3A4151"/>
<path opacity="0.8" d="M48.4886 16.647C47.9159 17.3359 47.6586 18.6224 47.6586 20.4982C47.5979 22.1647 47.8804 23.8258 48.4886 25.3786C48.9771 26.6113 49.8504 27.6534 50.9786 28.35C52.0908 28.9891 52.9457 28.9725 53.5267 28.3002C54.1077 27.6279 54.4065 26.3414 54.4148 24.4407C54.4641 22.7939 54.1818 21.1539 53.5848 19.6184C53.0899 18.354 52.1874 17.2908 51.0201 16.5972C49.9162 15.9498 49.0613 15.9498 48.4886 16.647ZM50.0822 24.5569C49.9524 23.644 49.8858 22.7233 49.883 21.8013C49.8448 20.8438 49.9398 19.8857 50.1652 18.9544C50.3395 18.3734 50.6383 18.2074 51.045 18.4398C51.2894 18.6251 51.4934 18.8584 51.6447 19.1252C51.796 19.3921 51.8913 19.687 51.9248 19.9919C52.1177 21.0317 52.2039 22.0885 52.1821 23.1459C52.2129 24.1027 52.1209 25.0594 51.9082 25.9928C51.7173 26.5655 51.4351 26.7398 51.0367 26.5074C50.7406 26.2755 50.5009 25.9795 50.3356 25.6417C50.1703 25.3038 50.0836 24.933 50.0822 24.5569Z" fill="#3A4151"/>
<path opacity="0.8" d="M205.583 131.751C204.637 131.212 203.923 131.071 203.342 131.353C203.05 131.544 202.817 131.814 202.67 132.131C202.524 132.448 202.469 132.799 202.512 133.146C202.503 133.653 202.579 134.158 202.736 134.64C202.884 135.129 203.093 135.597 203.358 136.034C203.599 136.449 204.047 137.105 204.67 137.976C205.361 138.884 205.961 139.857 206.463 140.881C206.662 141.352 206.805 141.845 206.886 142.35L203.989 140.69V139.205L202.387 138.283L202.462 141.645L208.82 145.314C208.839 144.498 208.773 143.683 208.621 142.882C208.458 142.196 208.227 141.529 207.932 140.89C207.535 140.033 207.086 139.201 206.587 138.4C205.84 137.163 205.342 136.3 205.101 135.777C204.874 135.317 204.752 134.812 204.744 134.299C204.727 134.169 204.744 134.036 204.794 133.914C204.843 133.792 204.923 133.684 205.027 133.602C205.132 133.541 205.253 133.513 205.375 133.522C205.496 133.531 205.612 133.576 205.707 133.652C206.093 133.902 206.385 134.273 206.537 134.706C206.748 135.364 206.857 136.049 206.861 136.74L208.679 137.686C208.706 136.757 208.563 135.832 208.255 134.955C207.987 134.26 207.596 133.619 207.102 133.063C206.659 132.557 206.148 132.116 205.583 131.751Z" fill="#3A4151"/>
<path opacity="0.8" d="M183.646 119.301C182.7 118.753 181.986 118.629 181.421 118.919C181.128 119.105 180.893 119.371 180.746 119.686C180.599 120.001 180.545 120.351 180.591 120.696C180.592 121.198 180.673 121.697 180.832 122.173C180.987 122.654 181.196 123.117 181.455 123.551C181.704 123.974 182.143 124.63 182.774 125.51C183.464 126.414 184.061 127.384 184.559 128.406C184.763 128.87 184.905 129.358 184.982 129.859L182.085 128.199V126.713L180.483 125.792L180.558 129.153L186.966 132.814C186.986 132.001 186.919 131.189 186.767 130.39C186.605 129.702 186.374 129.031 186.078 128.39C185.678 127.535 185.229 126.703 184.733 125.9C183.986 124.671 183.488 123.792 183.247 123.294C183.022 122.83 182.9 122.323 182.89 121.808C182.872 121.676 182.888 121.541 182.938 121.418C182.987 121.294 183.068 121.185 183.173 121.102C183.278 121.041 183.399 121.013 183.521 121.022C183.642 121.031 183.758 121.076 183.853 121.152C184.243 121.401 184.536 121.776 184.683 122.215C184.899 122.871 185.008 123.557 185.007 124.248L186.825 125.194C186.852 124.263 186.709 123.335 186.401 122.455C186.151 121.777 185.78 121.15 185.306 120.604C184.825 120.085 184.264 119.645 183.646 119.301Z" fill="#3A4151"/>
<path opacity="0.8" d="M175.777 114.72C174.798 114.164 174.043 113.989 173.503 114.222C172.964 114.454 172.673 115.052 172.673 115.94C172.699 117.237 173.226 118.474 174.142 119.393C172.914 119.152 172.3 119.7 172.291 121.053C172.295 122.153 172.625 123.227 173.238 124.14C173.847 125.089 174.675 125.878 175.653 126.439C177.778 127.659 178.915 127.112 179.089 124.779L177.172 123.485C177.172 124.821 176.707 125.236 175.86 124.746C175.455 124.497 175.13 124.137 174.923 123.709C174.687 123.27 174.565 122.779 174.566 122.281C174.543 122.096 174.562 121.907 174.623 121.731C174.683 121.554 174.783 121.393 174.914 121.26C175.163 121.078 175.512 121.111 175.993 121.393C176.101 121.451 176.259 121.559 176.433 121.667V119.741C175.931 119.48 175.509 119.087 175.213 118.604C174.966 118.217 174.831 117.769 174.823 117.309C174.804 117.17 174.821 117.029 174.872 116.898C174.923 116.768 175.006 116.652 175.113 116.562C175.238 116.503 175.376 116.481 175.513 116.497C175.649 116.513 175.778 116.567 175.885 116.654C176.242 116.87 176.531 117.182 176.719 117.555C176.907 117.928 176.986 118.346 176.948 118.762L178.815 119.7C178.784 118.673 178.474 117.675 177.919 116.811C177.38 115.955 176.646 115.238 175.777 114.72Z" fill="#3A4151"/>
<path opacity="0.8" d="M152.795 101.274C151.857 100.734 151.135 100.593 150.57 100.884C150.279 101.074 150.046 101.342 149.9 101.657C149.753 101.973 149.698 102.323 149.74 102.668C149.747 103.168 149.831 103.663 149.989 104.137C150.142 104.621 150.348 105.086 150.603 105.523C150.852 105.947 151.292 106.594 151.923 107.474C152.613 108.378 153.211 109.348 153.708 110.371C153.914 110.839 154.057 111.333 154.131 111.84L151.234 110.18V108.694L149.641 107.773L149.724 111.134L156.081 114.803C156.095 113.987 156.025 113.173 155.874 112.371C155.716 111.683 155.482 111.015 155.177 110.379C154.784 109.523 154.34 108.692 153.849 107.889C153.093 106.652 152.595 105.781 152.355 105.266C152.124 104.805 152.002 104.296 151.998 103.78C151.986 103.651 152.004 103.52 152.052 103.399C152.099 103.278 152.175 103.17 152.272 103.083C152.378 103.024 152.499 102.998 152.619 103.007C152.74 103.015 152.856 103.059 152.952 103.133C153.34 103.384 153.632 103.759 153.782 104.195C154.001 104.848 154.108 105.533 154.098 106.221L155.915 107.167C155.948 106.241 155.804 105.317 155.492 104.444C155.229 103.747 154.838 103.105 154.338 102.552C153.888 102.054 153.368 101.623 152.795 101.274Z" fill="#3A4151"/>
<path opacity="0.8" d="M141.266 103.1L142.229 103.656V105.125L141.399 104.643V106.303L145.383 108.603V106.943L144.271 106.303V104.834L147.914 106.943C148.058 106.541 148.236 106.152 148.445 105.781L144.204 96.3351L142.254 95.2063V102.104L141.291 101.548L141.266 103.1ZM144.271 103.282V99.3065L146.761 104.71L144.271 103.282Z" fill="#3A4151"/>
<path opacity="0.8" d="M121.396 82.9889C120.458 82.4411 119.736 82.3166 119.171 82.5988C118.878 82.7874 118.645 83.0551 118.498 83.371C118.351 83.6868 118.297 84.0378 118.341 84.3833C118.343 84.8827 118.424 85.3786 118.582 85.8524C118.74 86.335 118.949 86.7995 119.205 87.2385C119.445 87.6535 119.893 88.3009 120.516 89.189C121.204 90.0926 121.804 91.0598 122.309 92.0774C122.511 92.5472 122.654 93.0409 122.732 93.5465L119.835 91.8865V90.4008L118.233 89.4795L118.308 92.7995L124.666 96.4681C124.689 95.6499 124.623 94.8315 124.467 94.0279C124.304 93.3453 124.073 92.6807 123.778 92.0442C123.38 91.1882 122.931 90.3567 122.433 89.5542C121.686 88.3258 121.188 87.446 120.948 86.9314C120.725 86.4729 120.603 85.9719 120.591 85.4623C120.577 85.3294 120.595 85.1951 120.644 85.0708C120.693 84.9466 120.772 84.836 120.873 84.7485C120.979 84.6897 121.101 84.6639 121.222 84.6742C121.343 84.6846 121.459 84.7306 121.553 84.8066C121.943 85.0556 122.236 85.4305 122.383 85.869C122.596 86.5203 122.705 87.2008 122.707 87.8859L124.525 88.8404C124.553 87.9119 124.41 86.9861 124.102 86.1097C123.835 85.4165 123.444 84.778 122.948 84.2256C122.494 83.7399 121.971 83.3233 121.396 82.9889Z" fill="#3A4151"/>
<path opacity="0.8" d="M110.506 76.8965V79.5774L111.959 80.4074L112.091 79.6438L114.64 81.1129L114.781 83.9266C114.336 83.2886 113.762 82.7513 113.096 82.3496C112.133 81.7935 111.378 81.7105 110.838 82.1255C110.54 82.4001 110.31 82.7403 110.166 83.1191C110.022 83.498 109.968 83.9051 110.008 84.3084C109.995 85.468 110.281 86.6114 110.838 87.6284C111.434 88.7323 112.336 89.6404 113.436 90.2429C114.432 90.8239 115.196 90.9733 115.743 90.7077C116.054 90.5323 116.313 90.2779 116.493 89.9704C116.674 89.6629 116.771 89.3131 116.773 88.9564L114.897 87.6118C114.764 88.6327 114.324 88.9315 113.577 88.4999C113.152 88.2481 112.811 87.8754 112.598 87.4292C112.357 86.93 112.238 86.3812 112.249 85.8273C112.249 84.4661 112.681 84.0511 113.544 84.5491C114.108 84.9297 114.528 85.4876 114.739 86.1344H116.333L116.051 80.1916L110.506 76.8965Z" fill="#3A4151"/>
<path opacity="0.8" d="M90.0798 65.26C89.1419 64.7122 88.4198 64.5877 87.8554 64.8782C87.5632 65.0655 87.3302 65.3317 87.1832 65.6461C87.0363 65.9605 86.9816 66.3102 87.0254 66.6544C87.0191 67.1538 87.0977 67.6505 87.2578 68.1235C87.4162 68.6061 87.6249 69.0707 87.8803 69.5096C88.1293 69.9329 88.5693 70.5886 89.2001 71.4684C89.8956 72.3682 90.4937 73.3392 90.9845 74.3651C91.1889 74.8286 91.3312 75.317 91.4078 75.8176L88.5111 74.1576V72.6719L86.9258 71.7506L87.0005 75.1121L93.3583 78.789C93.3742 77.973 93.3018 77.1576 93.1426 76.3571C92.9912 75.6659 92.76 74.9946 92.4536 74.3568C92.0552 73.504 91.6119 72.6728 91.1256 71.8668C90.3703 70.6384 89.8723 69.7503 89.6316 69.244C89.402 68.7851 89.2799 68.2798 89.2747 67.7666C89.2598 67.6344 89.2769 67.5006 89.3246 67.3763C89.3723 67.2521 89.4491 67.1412 89.5486 67.0528C89.6551 66.9941 89.7766 66.9682 89.8978 66.9785C90.0189 66.9889 90.1343 67.035 90.2292 67.1109C90.6362 67.3547 90.9446 67.7337 91.1007 68.1816C91.3219 68.8335 91.4286 69.5186 91.4161 70.2068L93.2339 71.153C93.2703 70.2213 93.1266 69.2913 92.8105 68.414C92.5475 67.7398 92.1651 67.1184 91.6817 66.5797C91.2196 66.0593 90.6791 65.614 90.0798 65.26Z" fill="#3A4151"/>
<path opacity="0.8" d="M79.4144 64.3056C78.8942 64.6044 78.6176 65.3348 78.5844 66.4968C78.5569 67.6791 78.8432 68.8476 79.4144 69.8832C79.9253 70.8313 80.6897 71.6186 81.6222 72.1574C82.8257 72.8546 83.7304 72.9044 84.3197 72.3317C84.909 71.759 85.2078 70.4559 85.2078 68.4639C85.2866 66.693 84.9513 64.9282 84.2284 63.3096C83.6461 62.0694 82.703 61.0338 81.5226 60.3382C79.8626 59.3754 78.9496 59.8568 78.7338 61.7658L80.3938 62.9195C80.593 62.0895 80.9914 61.8156 81.5641 62.1393C82.0939 62.5022 82.4742 63.0448 82.6348 63.6665C82.9021 64.5121 83.0365 65.3942 83.0332 66.281C82.6135 65.5491 82.0098 64.9397 81.2819 64.5131C81.0167 64.3166 80.7042 64.1938 80.3761 64.1574C80.0481 64.1209 79.7162 64.1721 79.4144 64.3056ZM80.925 69.4184C80.7187 68.9044 80.6199 68.3536 80.6345 67.7999C80.6345 67.194 80.7507 66.8039 80.9914 66.6379C81.1179 66.5608 81.2647 66.5235 81.4128 66.5309C81.5608 66.5383 81.7032 66.59 81.8214 66.6794C82.3164 66.9856 82.7385 67.3964 83.0581 67.8829C83.1174 68.6939 82.9837 69.5074 82.668 70.2567C82.4273 70.5721 82.0953 70.6136 81.6637 70.3646C81.3085 70.1437 81.0369 69.8108 80.8918 69.4184" fill="#3A4151"/>
<path opacity="0.8" d="M58.9133 47.4149C57.9754 46.8671 57.2533 46.7426 56.6889 47.0248C56.3961 47.2134 56.1626 47.4811 56.0157 47.797C55.8688 48.1128 55.8145 48.4638 55.8589 48.8093C55.8574 49.311 55.9359 49.8097 56.0914 50.2867C56.2498 50.7666 56.4584 51.2285 56.7139 51.6645C56.9629 52.0878 57.4028 52.7435 58.0335 53.6233C58.7272 54.5244 59.3253 55.4952 59.818 56.52C60.0225 56.9863 60.1649 57.4775 60.2414 57.9808L57.3529 56.3208V54.8351L55.7676 53.9221L55.8424 57.2836L62.2001 60.9522C62.2155 60.1335 62.1431 59.3154 61.9843 58.512C61.835 57.824 61.6067 57.1556 61.3038 56.52C60.9039 55.6664 60.4578 54.8351 59.9675 54.03C59.4246 53.1792 58.9259 52.301 58.4734 51.3989C58.245 50.9425 58.123 50.4402 58.1165 49.9298C58.103 49.7989 58.1208 49.6667 58.1684 49.5441C58.216 49.4214 58.2921 49.3118 58.3904 49.2243C58.4958 49.1633 58.617 49.1354 58.7384 49.1443C58.8598 49.1532 58.9757 49.1984 59.071 49.2741C59.4606 49.5272 59.7531 49.9045 59.901 50.3448C60.1216 50.9911 60.2283 51.6707 60.2164 52.3534L62.0922 53.2996C62.1262 52.3714 61.9855 51.4451 61.6772 50.5689C61.406 49.8788 61.0123 49.2433 60.5152 48.6931C60.0518 48.1855 59.5112 47.7542 58.9133 47.4149Z" fill="#3A4151"/>
<path opacity="0.8" d="M47.6918 41.1235V42.5096C48.3431 43.946 48.8464 45.445 49.1941 46.9833C49.6427 48.6074 49.8963 50.2792 49.9494 51.9633L48.6878 51.2412V53.0672L53.4769 55.8311V54.0051L52.2236 53.283C52.1112 51.7687 51.8328 50.2713 51.3936 48.8176C50.9737 47.1835 50.4184 45.5872 49.7336 44.0451L52.2734 45.5142V47.1078L53.8587 48.0291V44.6427L47.6918 41.1235Z" fill="#3A4151"/>
<path opacity="0.8" d="M203.201 157.714C202.611 158.278 202.296 159.598 202.296 161.689C202.296 165.618 203.51 168.285 205.94 169.691C206.214 169.899 206.533 170.04 206.872 170.102C207.211 170.164 207.56 170.146 207.89 170.048C208.405 169.832 208.72 169.218 208.72 168.255L207.06 167.093C206.861 167.923 206.471 168.222 205.915 167.923C205.027 167.408 204.529 166.039 204.412 163.773C204.879 164.504 205.514 165.112 206.263 165.549C206.531 165.75 206.85 165.872 207.184 165.898C207.517 165.925 207.852 165.855 208.147 165.698C208.662 165.35 208.928 164.636 208.977 163.524C208.972 162.39 208.687 161.276 208.147 160.278C207.606 159.268 206.785 158.435 205.782 157.88C204.661 157.191 203.807 157.149 203.201 157.714ZM204.396 162.138V162.03C204.363 161.338 204.491 160.647 204.769 160.013C204.807 159.908 204.87 159.814 204.953 159.739C205.036 159.664 205.136 159.611 205.244 159.584C205.352 159.557 205.466 159.557 205.574 159.584C205.682 159.611 205.782 159.664 205.865 159.739C206.211 159.966 206.476 160.297 206.62 160.685C206.821 161.174 206.917 161.7 206.902 162.229C206.943 162.644 206.831 163.06 206.587 163.399C206.388 163.648 206.072 163.64 205.657 163.399C205.159 163.072 204.73 162.649 204.396 162.154" fill="#3A4151"/>
<path opacity="0.8" d="M183.737 145.43C182.758 144.865 182.002 144.691 181.463 144.907C180.923 145.123 180.633 145.737 180.633 146.642C180.661 147.942 181.191 149.182 182.11 150.103C180.882 149.845 180.268 150.393 180.268 151.763C180.264 152.854 180.588 153.92 181.197 154.825C181.808 155.77 182.632 156.558 183.604 157.125C185.737 158.353 186.924 157.805 187.049 155.465L185.14 154.186C185.14 155.503 184.7 155.918 183.82 155.431C183.419 155.184 183.094 154.831 182.882 154.41C182.645 153.966 182.522 153.47 182.525 152.966C182.502 152.782 182.523 152.595 182.586 152.42C182.65 152.245 182.754 152.088 182.89 151.962C183.115 151.771 183.48 151.813 183.953 152.086L184.401 152.36V150.443C183.893 150.176 183.466 149.777 183.164 149.289C182.92 148.901 182.788 148.453 182.783 147.995C182.765 147.855 182.783 147.713 182.835 147.582C182.888 147.452 182.972 147.336 183.081 147.248C183.264 147.115 183.53 147.156 183.837 147.331C184.195 147.549 184.484 147.865 184.67 148.241C184.857 148.617 184.933 149.038 184.891 149.455L186.775 150.41C186.746 149.386 186.436 148.389 185.878 147.53C185.35 146.663 184.614 145.941 183.737 145.43Z" fill="#3A4151"/>
<path opacity="0.8" d="M172.955 140.765C172.383 141.454 172.125 142.741 172.125 144.616C172.065 146.28 172.347 147.939 172.955 149.489C173.44 150.722 174.314 151.762 175.445 152.452C176.566 153.099 177.413 153.082 177.994 152.452C178.575 151.821 178.882 150.501 178.882 148.6C178.93 146.951 178.648 145.308 178.052 143.77C177.564 142.503 176.66 141.44 175.487 140.757C174.383 140.06 173.528 140.076 172.955 140.765ZM174.516 148.667C174.393 147.759 174.329 146.844 174.325 145.928C174.29 144.965 174.382 144.003 174.599 143.064C174.773 142.492 175.072 142.317 175.479 142.55C175.725 142.735 175.93 142.969 176.082 143.238C176.233 143.506 176.327 143.803 176.358 144.11C176.556 145.144 176.643 146.195 176.616 147.247C176.655 148.207 176.563 149.168 176.342 150.103C176.167 150.667 175.869 150.841 175.512 150.609C175.209 150.382 174.962 150.089 174.79 149.753C174.617 149.416 174.523 149.045 174.516 148.667Z" fill="#3A4151"/>
</g>
<path d="M21.2396 -102.698C14.8984 -106.359 9.75241 -103.42 9.72751 -96.1331L9.66113 -71.009L224.631 53.1175L224.698 27.9934C224.698 20.706 219.601 11.8416 213.268 8.18134L21.2396 -102.698Z" fill="black"/>
<path opacity="0.4" d="M33.0422 247.445C14.7935 247.445 -7.62939e-05 238.902 -7.62939e-05 228.364C-7.62939e-05 217.825 14.7935 209.282 33.0422 209.282C51.291 209.282 66.0845 217.825 66.0845 228.364C66.0845 238.902 51.291 247.445 33.0422 247.445Z" fill="#D6D8E5"/>
<path d="M7.68574 103.366C7.68574 103.366 8.61533 117.384 10.4496 119.393C12.2839 121.402 18.5089 122.796 18.5089 122.796L23.298 130.673C23.298 130.673 18.9239 105.615 17.9777 105.017C17.0315 104.42 7.68574 103.366 7.68574 103.366Z" fill="#868686"/>
<path d="M16.9319 87.8031C15.7697 87.2711 14.453 87.1825 13.23 87.554C12.0069 87.9255 10.9619 88.7314 10.2919 89.82C8.53235 92.7333 6.69802 102.751 6.53202 104.461C6.53202 104.461 9.02203 107.872 12.7155 107.308L16.9319 87.8031Z" fill="#7D7D7D"/>
<path d="M31.1249 227.683C33.7319 228.401 36.5166 228.064 38.8771 226.745C40.7446 226.803 50.8789 222.462 52.265 226.106C53.4685 229.293 49.0778 232.248 46.7372 232.821C41.6161 234.057 37.823 236.614 35.7646 237.045C34.2374 237.369 32.2537 237.585 31.0336 236.373C29.5645 234.929 29.6973 229.584 31.1249 227.683Z" fill="black"/>
<path d="M35.7647 236.166C37.8231 235.726 41.5747 233.178 46.7373 231.933C48.6961 231.46 52.0825 229.31 52.4311 226.745C52.8793 229.683 48.9202 232.29 46.7373 232.821C41.6162 234.057 37.8231 236.614 35.7647 237.045C34.2375 237.369 32.2538 237.585 31.0337 236.373C30.7166 236.025 30.4862 235.607 30.3614 235.153C31.1221 235.729 32.0061 236.12 32.9438 236.296C33.8815 236.471 34.8471 236.427 35.7647 236.166Z" fill="black"/>
<path d="M15.3383 222.761C17.9449 223.484 20.7314 223.146 23.0905 221.823C24.958 221.881 35.1006 217.54 36.4784 221.184C37.6819 224.38 33.2912 227.326 30.9506 227.899C25.8295 229.135 22.0364 231.692 19.9863 232.124C18.4508 232.447 16.4671 232.663 15.247 231.46C13.7779 230.007 13.9107 224.662 15.3383 222.761Z" fill="black"/>
<path d="M19.9864 231.244C22.0365 230.804 25.7964 228.256 30.9507 227.011C32.9178 226.538 36.3042 224.388 36.6445 221.823C37.101 224.761 33.1336 227.368 30.9507 227.899C25.8296 229.136 22.0365 231.692 19.9864 232.124C18.4509 232.447 16.4672 232.663 15.2471 231.46C14.9301 231.108 14.6999 230.687 14.5748 230.231C15.337 230.807 16.2225 231.198 17.1615 231.374C18.1005 231.55 19.0675 231.505 19.9864 231.244Z" fill="black"/>
<path d="M14.2179 194.25C14.6579 190.488 15.4414 186.773 16.5585 183.153C16.5585 183.153 15.8613 173.567 15.5127 164.487C15.1143 154.178 11.537 145.106 14.359 136.881L45.7579 143.861C45.7579 143.861 44.2473 185.046 43.824 190.026C43.5836 193.897 43.1069 197.75 42.3964 201.563C40.9439 209.539 39.3586 227.401 39.3586 227.401C36.0386 229.351 31.0586 227.749 31.0586 227.749C31.0586 227.749 31.0586 205.389 31.2495 199.645C31.5151 192.624 31.7309 193.163 31.7309 193.163L30.6768 175.675L29.9962 166.977C29.9962 166.977 29.1081 173.359 28.5354 179.061C28.0374 184.041 26.8754 188.532 25.4976 197.786C24.3356 205.812 23.1321 222.18 23.1321 222.18C19.7706 224.13 15.2471 222.786 15.2471 222.786C15.2471 222.786 13.3132 201.214 14.2179 194.25Z" fill="#767070"/>
<path d="M18.6251 87.9774C21.0404 88.0936 22.8499 88.7161 23.1487 87.9774C23.4086 86.7279 23.5943 85.4641 23.7047 84.1926C23.4225 83.4871 23.1819 82.7318 23.1819 82.7318C20.1441 80.8643 19.1812 77.5775 18.7828 73.7429C18.0939 67.2025 21.6297 61.4755 28.1784 60.7949C34.3287 60.1475 38.8522 64.4718 40.064 70.4063C40.7114 73.3445 42.0063 78.8806 40.255 83.6863C39.2839 86.3755 38.0139 88.5169 36.7606 88.9319C35.5406 88.9047 34.3235 88.7994 33.1169 88.6165C33.1169 88.6165 32.7932 90.4342 32.5691 91.6045C32.345 92.7748 32.4363 93.389 34.752 94.8166C37.0677 96.2442 31.2412 99.1907 27.4315 98.9002C23.6218 98.6097 19.3306 96.3106 18.152 93.8455C16.8157 91.1314 16.9568 87.8944 18.6251 87.9774Z" fill="#868686"/>
<path d="M22.1278 88.3341C21.4555 89.9941 23.157 92.0525 27.7137 93.4884C32.2704 94.9243 32.6937 93.0734 32.6937 93.0734C32.6937 93.0734 39.3337 96.1112 41.5332 97.6301C44.2639 99.5391 45.4757 105.059 45.8409 114.388C46.2725 125.178 46.3057 141.189 45.9488 143.952C45.9488 143.952 40.8443 149.04 34.3288 148.501C27.8133 147.961 16.8158 142.185 14.1515 137.711C14.2262 128.249 15.33 126.713 13.7946 121.26C10.292 108.81 8.44106 103.673 10.1509 95.3808C11.5536 88.5499 13.5207 87.695 16.2182 87.7614C18.1968 87.8472 20.1695 88.0384 22.1278 88.3341Z" fill="#F4F4F4"/>
<path d="M40.1886 152.261L36.8686 114.687L43.8655 110.968L46.6045 113.259L45.7745 147.007V147.928L45.7247 149.115C45.7247 149.115 45.8907 151.962 40.5289 155.357C40.5289 155.357 40.4459 154.469 40.3629 153.63L40.2384 152.228L40.1886 152.261Z" fill="#868686"/>
<path d="M39.3503 95.3063C42.9608 95.2399 45.2682 97.1573 46.148 102.735C47.0278 108.312 47.5258 112.869 47.5258 112.869C45.8623 114.717 43.5546 115.857 41.0767 116.056C36.6943 116.546 35.4244 114.322 35.4244 114.322C35.4244 114.322 34.9679 108.512 34.7272 104.602C34.4865 100.693 34.8766 95.3976 39.3503 95.3063Z" fill="#7D7D7D"/>
<path d="M39.8566 69.5681C39.8566 69.5681 45.5089 60.9693 33.2581 59.218C24.4186 57.9564 18.7414 63.6336 18.0857 69.7922C17.4632 75.6769 21.0819 81.794 23.7048 84.2176C24.983 84.6741 27.7303 84.9397 31.3408 83.2963C31.4832 81.693 31.5386 80.0832 31.5068 78.474C31.5068 78.474 27.1991 69.4104 39.8566 69.5681Z" fill="#0A0A0B"/>
<path opacity="0.4" d="M124.658 294C106.409 294 91.6153 285.457 91.6153 274.918C91.6153 264.38 106.409 255.837 124.658 255.837C142.906 255.837 157.7 264.38 157.7 274.918C157.7 285.457 142.906 294 124.658 294Z" fill="#D6D8E5"/>
<path d="M146.213 151.539C146.545 154.435 149.989 166.902 149.251 171.176C148.512 175.451 136.734 182.597 136.734 182.597L135.074 175.277L141.598 168.886L139.83 156.776L146.213 151.539Z" fill="#868686"/>
<path d="M137.099 139.255C138.244 138.722 139.545 138.629 140.754 138.993C141.963 139.358 142.996 140.154 143.656 141.23C145.391 144.102 147.192 153.954 147.35 155.631C147.35 155.631 144.926 158.951 141.274 158.436L137.099 139.255Z" fill="#7D7D7D"/>
<path d="M123.637 278.305C121.075 279.016 118.336 278.684 116.017 277.383C114.175 277.441 104.207 273.167 102.854 276.753C101.667 279.89 105.983 282.803 108.29 283.393C113.328 284.613 117.055 287.119 119.08 287.543C120.591 287.858 122.541 288.065 123.745 286.879C125.172 285.434 125.048 280.18 123.637 278.305Z" fill="#2B2A30"/>
<path d="M119.072 286.646C117.055 286.223 113.328 283.708 108.282 282.496C106.348 282.031 103.02 279.915 102.679 277.392C102.231 280.28 106.132 282.845 108.282 283.368C113.32 284.588 117.047 287.094 119.072 287.518C120.582 287.833 122.533 288.041 123.736 286.854C124.048 286.51 124.273 286.098 124.392 285.65C123.644 286.22 122.774 286.606 121.85 286.779C120.926 286.952 119.975 286.907 119.072 286.646Z" fill="#BF4B4B"/>
<path d="M139.814 271.042C137.249 271.753 134.507 271.422 132.186 270.121C130.352 270.179 120.383 265.905 119.022 269.49C117.835 272.636 122.151 275.541 124.459 276.13C129.497 277.35 133.223 279.865 135.249 280.28C136.751 280.596 138.701 280.803 139.905 279.624C141.316 278.172 141.225 272.918 139.814 271.042Z" fill="#2B2A30"/>
<path d="M135.248 279.383C133.223 278.96 129.497 276.445 124.458 275.233C122.525 274.769 119.196 272.652 118.864 270.129C118.416 273.017 122.309 275.582 124.458 276.105C129.497 277.325 133.223 279.84 135.248 280.255C136.751 280.57 138.701 280.778 139.905 279.599C140.216 279.254 140.443 278.843 140.569 278.396C139.819 278.962 138.949 279.346 138.025 279.517C137.102 279.689 136.151 279.643 135.248 279.383Z" fill="#BF4B4B"/>
<path d="M140.013 243.951C139.58 240.247 138.808 236.59 137.705 233.028C137.705 233.028 138.394 223.607 138.734 214.677C139.133 204.534 142.644 195.587 139.872 187.519L108.589 194.474C108.589 194.474 110.481 234.904 110.896 239.792C111.113 243.602 111.571 247.395 112.266 251.147C113.693 258.99 116.017 277.657 116.017 277.657C119.337 279.583 123.67 278.487 123.67 278.487C123.67 278.487 123.429 254.874 123.213 249.221C122.956 242.316 122.74 242.847 122.74 242.847L123.778 225.649L124.458 217.092C124.458 217.092 125.288 223.375 125.886 228.978C126.376 233.866 127.546 238.29 128.874 247.395C130.019 255.289 131.87 271.158 131.87 271.158C135.19 273.084 139.672 271.482 139.672 271.482C139.672 271.482 140.901 250.84 140.013 243.951Z" fill="#767070"/>
<path d="M135.439 139.421C133.057 139.537 131.289 140.151 130.991 139.421C130.729 138.194 130.546 136.952 130.443 135.702C130.717 135.005 130.949 134.266 130.949 134.266C133.945 132.424 134.892 129.187 135.282 125.427C135.954 118.986 132.476 113.359 126.044 112.686C119.993 112.056 115.536 116.305 114.349 122.14C113.71 125.028 112.44 130.44 114.158 135.213C115.121 137.869 116.366 139.968 117.603 140.383C118.8 140.348 119.995 140.242 121.18 140.068C121.18 140.068 121.504 141.853 121.719 143.006C121.935 144.16 121.852 144.758 119.57 146.169C117.287 147.58 123.023 150.468 126.774 150.177C130.526 149.887 134.742 147.629 135.904 145.197C137.166 142.525 137.074 139.346 135.439 139.421Z" fill="#868686"/>
<path d="M131.995 139.777C132.651 141.437 130.974 143.429 126.5 144.84C122.027 146.251 121.628 144.434 121.628 144.434C121.628 144.434 115.063 147.43 112.93 148.916C110.241 150.792 109.054 156.228 108.689 165.4C108.274 176.015 108.232 191.76 108.589 194.45C108.589 194.45 113.569 199.43 120.026 198.923C126.484 198.417 137.257 192.715 139.88 188.324C139.805 179.02 138.718 177.534 140.229 172.147C143.673 159.872 145.491 154.842 143.814 146.691C142.436 139.968 140.494 139.13 137.838 139.221C135.882 139.302 133.931 139.488 131.995 139.777Z" fill="#F4F4F4"/>
<path d="M98.5874 174.173C103.866 175.501 105.103 172.181 105.792 169.425C107.452 162.785 108.373 156.751 109.626 152.966C111.096 148.501 112.639 147.796 114.806 146.924C117.354 145.903 119.545 148.053 118.69 153.73C117.694 160.445 116.374 165.167 113.868 173.111C113.212 175.186 111.735 178.871 109.535 180.655C106.813 182.855 102.721 182.755 96.5207 181.22C93.8813 180.556 90.9846 178.979 85.9797 176.646C84.6351 176.024 83.5976 175.609 80.9997 174.405C78.4026 173.249 76.1244 171.48 74.3597 169.251C73.0068 167.292 72.8325 166.379 73.1064 165.931C73.3803 165.483 74.0692 165.491 74.7664 166.313C75.8084 167.703 77.0935 168.892 78.5595 169.824C78.5595 169.824 76.8995 168.106 75.9948 166.985C75.1851 165.997 74.5149 164.902 74.0028 163.732C73.5214 162.594 74.5091 161.042 75.2561 161.856C76.0031 162.669 76.3517 163.516 77.7461 165.126C78.4611 166 79.2807 166.783 80.1863 167.458C79.3413 166.314 78.5891 165.104 77.937 163.839C77.3466 162.854 77.0581 161.717 77.107 160.569C77.107 159.972 77.9868 159.266 78.767 160.395C79.5472 161.524 79.9373 162.993 81.5973 164.719C82.8008 165.964 83.8217 166.686 83.8549 166.338C83.8881 165.989 83.1245 165.309 82.6929 163.848C82.2613 162.387 82.6929 160.851 83.5229 160.685C84.3529 160.519 84.1786 160.561 84.8177 161.922C85.4568 163.283 86.4777 164.288 87.2164 166.271C87.6243 167.674 88.3679 168.956 89.3827 170.006C90.6858 171.392 93.5825 172.911 98.5874 174.173Z" fill="#868686"/>
<path d="M116.756 146.011C113.237 145.496 110.755 147.082 109.195 152.41C107.634 157.739 106.555 162.121 106.555 162.121C107.948 164.131 110.056 165.532 112.448 166.039C116.665 167.06 118.175 165.051 118.175 165.051C118.175 165.051 119.346 159.457 120.076 155.656C120.807 151.854 121.114 146.658 116.756 146.011Z" fill="#7D7D7D"/>
<path d="M114.557 121.36C114.557 121.36 108.996 112.902 121.047 111.184C129.737 109.939 135.323 115.517 135.987 121.584C136.61 127.394 133.041 133.378 130.468 135.769C129.214 136.217 126.509 136.474 122.956 134.856C122.814 133.28 122.758 131.698 122.79 130.116C122.79 130.116 126.998 121.161 114.557 121.36Z" fill="#2B2A30"/>
</g>
<defs>
<clipPath id="clip0">
<rect width="243.406" height="415" fill="white" transform="matrix(-1 0 0 1 243.406 -121)"/>
</clipPath>
</defs>
</svg>
