<svg width="22" height="24" viewBox="0 0 22 24" fill="none" xmlns="http://www.w3.org/2000/svg">
<path fill-rule="evenodd" clip-rule="evenodd" d="M21.8143 18.37L21.8153 18.373C22.1177 18.803 22.2626 20.232 20.1883 19.978C19.3366 19.8873 18.4994 19.6755 17.698 19.348C17.0716 19.086 16.4725 18.7521 15.9107 18.352C15.0782 18.7176 14.1964 18.9317 13.3003 18.986C12.6609 19.9222 11.8297 20.6823 10.873 21.2056C9.91644 21.7289 8.86093 22.001 7.79081 22C7.06877 22.0007 6.35114 21.8772 5.66436 21.634C5.26107 21.889 4.80278 22.138 4.29684 22.347C3.27028 22.771 2.41878 22.93 1.80651 22.977C1.34823 23.014 1.02468 22.988 0.865194 22.968C0.515063 22.924 0.201596 22.706 0.0659434 22.34C0.00768887 22.1816 -0.0124497 22.0096 0.00744435 21.8404C0.0273384 21.6711 0.086603 21.5102 0.179598 21.373C0.410574 21.028 0.623219 20.667 0.824864 20.301C1.21716 19.587 1.60212 18.817 1.69927 17.979C1.26945 17.0838 1.0099 16.103 0.936211 15.0956C0.862518 14.0882 0.976202 13.0749 1.27044 12.1166C1.56467 11.1583 2.03338 10.2748 2.64843 9.51911C3.26347 8.76341 4.01216 8.15112 4.84953 7.71902C5.1427 6.51055 5.66341 5.38196 6.37847 4.40519C7.09353 3.42841 7.98726 2.62487 9.00269 2.04578C10.0181 1.46668 11.133 1.12473 12.2763 1.04172C13.4195 0.958704 14.5661 1.13645 15.6429 1.56362C16.7198 1.9908 17.7032 2.65803 18.5306 3.52281C19.358 4.38758 20.0112 5.43093 20.4486 6.58636C20.8859 7.74178 21.0979 8.98395 21.0709 10.2337C21.044 11.4834 20.7787 12.7133 20.2919 13.845C20.1178 15.569 20.9124 17.02 21.8134 18.37H21.8143ZM6.41595 10C6.41645 8.94522 6.63543 7.90417 7.05654 6.95468C7.47765 6.00519 8.08999 5.17181 8.8478 4.51681C9.60561 3.8618 10.4893 3.40212 11.4328 3.1721C12.3764 2.94209 13.3554 2.94769 14.2966 3.18849C15.2379 3.42929 16.1171 3.89905 16.8686 4.56269C17.6201 5.22633 18.2244 6.06667 18.6363 7.02093C19.0483 7.97518 19.2573 9.01867 19.2476 10.0734C19.238 11.1282 19.01 12.1669 18.5807 13.112C18.5367 13.2086 18.5073 13.3122 18.4936 13.419C18.2929 14.994 18.6311 16.43 19.3231 17.809C18.3221 17.5433 17.3785 17.0659 16.5459 16.404C16.4121 16.2982 16.2546 16.2337 16.0901 16.2175C15.9255 16.2013 15.76 16.234 15.611 16.312C14.6327 16.8249 13.5512 17.0587 12.4676 16.9914C11.384 16.9242 10.3338 16.5582 9.41514 15.9276C8.4965 15.297 7.7395 14.4224 7.21497 13.3857C6.69044 12.3491 6.41553 11.1842 6.41595 10ZM4.58647 10.254C4.63803 12.2435 5.29228 14.1582 6.44696 15.699C7.60164 17.2397 9.19169 18.3197 10.9686 18.77C10.071 19.5675 8.94836 20.002 7.79081 20C7.12171 20 6.48653 19.859 5.90542 19.603C5.76938 19.543 5.62213 19.5195 5.47603 19.5344C5.32993 19.5494 5.18925 19.6024 5.06584 19.689C4.66346 19.972 4.18593 20.254 3.64699 20.477C3.32829 20.6096 3.00226 20.7201 2.67084 20.808C2.97606 20.201 3.28494 19.478 3.42609 18.798C3.49667 18.461 3.53608 18.134 3.55258 17.827C3.56376 17.6296 3.52102 17.433 3.42976 17.262C2.98257 16.4234 2.74785 15.4702 2.74966 14.5C2.74966 12.79 3.46459 11.263 4.58647 10.254Z" fill="#232222"/>
</svg>
