<svg width="334" height="290" viewBox="0 0 334 290" fill="none" xmlns="http://www.w3.org/2000/svg">
<g clip-path="url(#clip0)">
<path d="M288.748 290C313.353 290 333.3 288.479 333.3 286.602C333.3 284.725 313.353 283.204 288.748 283.204C264.143 283.204 244.196 284.725 244.196 286.602C244.196 288.479 264.143 290 288.748 290Z" fill="#E6E6E6"/>
<path d="M306.011 189.319L301.702 201.337C301.376 202.248 301.374 203.244 301.698 204.156C302.021 205.068 302.65 205.84 303.477 206.341C304.08 206.706 304.764 206.914 305.468 206.945C306.171 206.975 306.871 206.829 307.503 206.518C308.135 206.207 308.679 205.742 309.084 205.166C309.489 204.59 309.742 203.921 309.821 203.221L311.188 191.045L321.544 156.815L312.627 152.5L306.011 189.319Z" fill="#A0616A"/>
<path d="M302.415 280.071H308.743V218.515L294.361 218.228L302.415 280.071Z" fill="#A0616A"/>
<path d="M274.226 280.071H280.554V218.515L266.172 218.228L274.226 280.071Z" fill="#A0616A"/>
<path d="M309.75 224.987L293.354 223.261L289.903 205.139L283.575 223.549L264.015 221.535L272.069 191.045C286.791 181.041 300.774 181.259 314.065 191.045L309.75 224.987Z" fill="#2F2E41"/>
<path d="M281.952 282.693C282.049 283.474 281.966 284.267 281.709 285.011C281.451 285.754 281.027 286.429 280.467 286.983C279.908 287.536 279.229 287.954 278.482 288.204C277.736 288.453 276.942 288.528 276.162 288.422L264.504 286.841C263.461 286.679 262.526 286.109 261.903 285.257C261.28 284.406 261.02 283.342 261.18 282.299C261.325 281.358 261.802 280.501 262.524 279.881C263.246 279.261 264.167 278.921 265.118 278.921H267.04L273.364 273.159C273.427 277.083 276.317 276.212 281.094 275.829L281.952 282.693Z" fill="#2F2E41"/>
<path d="M310.141 282.693C310.239 283.474 310.155 284.267 309.898 285.011C309.641 285.754 309.216 286.429 308.656 286.983C308.097 287.536 307.418 287.954 306.671 288.204C305.925 288.453 305.131 288.528 304.351 288.422L292.693 286.841C291.651 286.679 290.715 286.109 290.092 285.257C289.469 284.406 289.209 283.342 289.37 282.299C289.514 281.358 289.991 280.501 290.713 279.881C291.436 279.261 292.356 278.921 293.307 278.921H295.23L301.554 273.159C301.616 277.083 304.506 276.212 309.283 275.829L310.141 282.693Z" fill="#2F2E41"/>
<path d="M287.673 120.284C293.273 120.284 297.813 115.745 297.813 110.145C297.813 104.545 293.273 100.005 287.673 100.005C282.074 100.005 277.534 104.545 277.534 110.145C277.534 115.745 282.074 120.284 287.673 120.284Z" fill="#A0616A"/>
<path d="M300.546 127.188L287.889 128.339V117.12L294.505 113.093L300.546 127.188Z" fill="#A0616A"/>
<path d="M315.503 195.36C302.77 186.036 287.482 186.984 270.63 194.209C278.265 172.596 281.517 152.453 275.52 135.412C275.52 132.402 276.523 129.476 278.369 127.098C280.215 124.72 282.801 123.024 285.718 122.278L287.889 121.723L298.532 122.298L308.526 128.156C310.564 129.351 312.256 131.056 313.435 133.103C314.614 135.15 315.24 137.469 315.251 139.832L315.503 195.36Z" fill="#E6E6E6"/>
<path d="M266.316 187.018L262.007 199.036C261.681 199.947 261.679 200.942 262.003 201.854C262.326 202.766 262.955 203.538 263.782 204.04C264.385 204.405 265.069 204.612 265.773 204.643C266.476 204.674 267.176 204.527 267.808 204.217C268.44 203.906 268.984 203.441 269.389 202.865C269.794 202.289 270.047 201.62 270.126 200.92L271.493 188.744L281.849 154.514L272.932 150.199L266.316 187.018Z" fill="#A0616A"/>
<path d="M323.845 163.431H309.75V128.914C312.188 130.268 314.306 132.131 315.96 134.375C317.615 136.62 318.767 139.195 319.339 141.924L323.845 163.431Z" fill="#E6E6E6"/>
<path d="M279.943 104.655C279.323 104.947 278.641 105.081 277.957 105.044C277.272 105.007 276.608 104.8 276.024 104.443C275.452 104.065 275.021 103.51 274.795 102.863C274.57 102.216 274.564 101.512 274.778 100.861C275.205 99.7622 276.287 99.0738 277.337 98.536C279.652 97.3505 282.134 96.5216 284.697 96.0773C285.919 95.8659 287.213 95.7496 288.368 96.2013C288.94 96.4248 289.452 96.7789 290.02 97.0129C291.063 97.4432 292.226 97.4451 293.33 97.6785C294.461 97.9253 295.525 98.4121 296.45 99.1057C297.376 99.7994 298.142 100.684 298.697 101.699C299.06 102.39 299.339 103.122 299.527 103.88C300.059 105.952 300.052 108.126 299.507 110.195C298.639 113.472 296.429 116.483 296.628 119.868C294.994 118.917 294.229 116.979 292.865 115.671C291.85 114.704 290.538 114.109 289.142 113.985C288.761 114 288.383 113.904 288.056 113.708C287.818 113.475 287.653 113.178 287.583 112.853L286.046 108.039C285.733 107.059 285.355 105.995 284.471 105.469C283.926 105.193 283.324 105.047 282.713 105.042C281.251 104.936 279.783 104.949 278.323 105.083" fill="#2F2E41"/>
<path d="M283.287 157.103L266.891 150.775L274.337 130.712C275.204 128.376 276.727 126.339 278.722 124.847C280.718 123.354 283.102 122.469 285.588 122.298L283.287 157.103Z" fill="#E6E6E6"/>
<path d="M195.08 214.787H15.0098C14.1553 214.786 13.336 214.446 12.7317 213.841C12.1274 213.237 11.7876 212.418 11.7866 211.563V15.1622C11.7876 14.3076 12.1274 13.4883 12.7317 12.8841C13.336 12.2798 14.1553 11.9399 15.0098 11.939H195.08C195.935 11.9399 196.754 12.2798 197.358 12.8841C197.962 13.4883 198.302 14.3076 198.303 15.1622V211.563C198.302 212.418 197.962 213.237 197.358 213.841C196.754 214.446 195.935 214.786 195.08 214.787ZM15.0098 13.2283C14.4971 13.2288 14.0055 13.4327 13.643 13.7953C13.2804 14.1579 13.0765 14.6494 13.0759 15.1622V211.563C13.0765 212.076 13.2804 212.568 13.643 212.93C14.0055 213.293 14.4971 213.497 15.0098 213.497H195.08C195.593 213.497 196.084 213.293 196.447 212.93C196.809 212.568 197.013 212.076 197.014 211.563V15.1622C197.013 14.6494 196.809 14.1579 196.447 13.7953C196.084 13.4327 195.593 13.2288 195.08 13.2283H15.0098Z" fill="#E6E6E6"/>
<path d="M52.1679 85.1473C54.5041 85.1473 56.3981 83.2534 56.3981 80.9172C56.3981 78.5809 54.5041 76.687 52.1679 76.687C49.8316 76.687 47.9377 78.5809 47.9377 80.9172C47.9377 83.2534 49.8316 85.1473 52.1679 85.1473Z" fill="#E6E6E6"/>
<path d="M69.7936 85.1473C72.1299 85.1473 74.0238 83.2534 74.0238 80.9172C74.0238 78.5809 72.1299 76.687 69.7936 76.687C67.4574 76.687 65.5635 78.5809 65.5635 80.9172C65.5635 83.2534 67.4574 85.1473 69.7936 85.1473Z" fill="#E6E6E6"/>
<path d="M87.4191 85.1473C89.7554 85.1473 91.6493 83.2534 91.6493 80.9172C91.6493 78.5809 89.7554 76.687 87.4191 76.687C85.0829 76.687 83.189 78.5809 83.189 80.9172C83.189 83.2534 85.0829 85.1473 87.4191 85.1473Z" fill="#52B9A7"/>
<path d="M105.045 85.1473C107.381 85.1473 109.275 83.2534 109.275 80.9172C109.275 78.5809 107.381 76.687 105.045 76.687C102.709 76.687 100.815 78.5809 100.815 80.9172C100.815 83.2534 102.709 85.1473 105.045 85.1473Z" fill="#52B9A7"/>
<path d="M122.671 85.1473C125.007 85.1473 126.901 83.2534 126.901 80.9172C126.901 78.5809 125.007 76.687 122.671 76.687C120.334 76.687 118.44 78.5809 118.44 80.9172C118.44 83.2534 120.334 85.1473 122.671 85.1473Z" fill="#52B9A7"/>
<path d="M140.296 85.1473C142.632 85.1473 144.526 83.2534 144.526 80.9172C144.526 78.5809 142.632 76.687 140.296 76.687C137.96 76.687 136.066 78.5809 136.066 80.9172C136.066 83.2534 137.96 85.1473 140.296 85.1473Z" fill="#E6E6E6"/>
<path d="M157.922 85.1473C160.258 85.1473 162.152 83.2534 162.152 80.9172C162.152 78.5809 160.258 76.687 157.922 76.687C155.586 76.687 153.692 78.5809 153.692 80.9172C153.692 83.2534 155.586 85.1473 157.922 85.1473Z" fill="#E6E6E6"/>
<path d="M52.1679 98.5428C54.5041 98.5428 56.3981 96.6489 56.3981 94.3127C56.3981 91.9764 54.5041 90.0825 52.1679 90.0825C49.8316 90.0825 47.9377 91.9764 47.9377 94.3127C47.9377 96.6489 49.8316 98.5428 52.1679 98.5428Z" fill="#E6E6E6"/>
<path d="M69.7936 98.5428C72.1299 98.5428 74.0238 96.6489 74.0238 94.3127C74.0238 91.9764 72.1299 90.0825 69.7936 90.0825C67.4574 90.0825 65.5635 91.9764 65.5635 94.3127C65.5635 96.6489 67.4574 98.5428 69.7936 98.5428Z" fill="#E6E6E6"/>
<path d="M87.4191 98.5428C89.7554 98.5428 91.6493 96.6489 91.6493 94.3127C91.6493 91.9764 89.7554 90.0825 87.4191 90.0825C85.0829 90.0825 83.189 91.9764 83.189 94.3127C83.189 96.6489 85.0829 98.5428 87.4191 98.5428Z" fill="#E6E6E6"/>
<path d="M105.045 98.5428C107.381 98.5428 109.275 96.6489 109.275 94.3127C109.275 91.9764 107.381 90.0825 105.045 90.0825C102.709 90.0825 100.815 91.9764 100.815 94.3127C100.815 96.6489 102.709 98.5428 105.045 98.5428Z" fill="#E6E6E6"/>
<path d="M122.671 98.5428C125.007 98.5428 126.901 96.6489 126.901 94.3127C126.901 91.9764 125.007 90.0825 122.671 90.0825C120.334 90.0825 118.44 91.9764 118.44 94.3127C118.44 96.6489 120.334 98.5428 122.671 98.5428Z" fill="#E6E6E6"/>
<path d="M140.296 98.5428C142.632 98.5428 144.526 96.6489 144.526 94.3127C144.526 91.9764 142.632 90.0825 140.296 90.0825C137.96 90.0825 136.066 91.9764 136.066 94.3127C136.066 96.6489 137.96 98.5428 140.296 98.5428Z" fill="#E6E6E6"/>
<path d="M157.922 98.5428C160.258 98.5428 162.152 96.6489 162.152 94.3127C162.152 91.9764 160.258 90.0825 157.922 90.0825C155.586 90.0825 153.692 91.9764 153.692 94.3127C153.692 96.6489 155.586 98.5428 157.922 98.5428Z" fill="#E6E6E6"/>
<path d="M52.1679 111.938C54.5041 111.938 56.3981 110.044 56.3981 107.708C56.3981 105.371 54.5041 103.478 52.1679 103.478C49.8316 103.478 47.9377 105.371 47.9377 107.708C47.9377 110.044 49.8316 111.938 52.1679 111.938Z" fill="#52B9A7"/>
<path d="M69.7936 111.938C72.1299 111.938 74.0238 110.044 74.0238 107.708C74.0238 105.371 72.1299 103.478 69.7936 103.478C67.4574 103.478 65.5635 105.371 65.5635 107.708C65.5635 110.044 67.4574 111.938 69.7936 111.938Z" fill="#52B9A7"/>
<path d="M87.4191 111.938C89.7554 111.938 91.6493 110.044 91.6493 107.708C91.6493 105.371 89.7554 103.478 87.4191 103.478C85.0829 103.478 83.189 105.371 83.189 107.708C83.189 110.044 85.0829 111.938 87.4191 111.938Z" fill="#52B9A7"/>
<path d="M105.045 111.938C107.381 111.938 109.275 110.044 109.275 107.708C109.275 105.371 107.381 103.478 105.045 103.478C102.709 103.478 100.815 105.371 100.815 107.708C100.815 110.044 102.709 111.938 105.045 111.938Z" fill="#E6E6E6"/>
<path d="M122.671 111.938C125.007 111.938 126.901 110.044 126.901 107.708C126.901 105.371 125.007 103.478 122.671 103.478C120.334 103.478 118.44 105.371 118.44 107.708C118.44 110.044 120.334 111.938 122.671 111.938Z" fill="#E6E6E6"/>
<path d="M140.296 111.938C142.632 111.938 144.526 110.044 144.526 107.708C144.526 105.371 142.632 103.478 140.296 103.478C137.96 103.478 136.066 105.371 136.066 107.708C136.066 110.044 137.96 111.938 140.296 111.938Z" fill="#E6E6E6"/>
<path d="M157.922 111.938C160.258 111.938 162.152 110.044 162.152 107.708C162.152 105.371 160.258 103.478 157.922 103.478C155.586 103.478 153.692 105.371 153.692 107.708C153.692 110.044 155.586 111.938 157.922 111.938Z" fill="#E6E6E6"/>
<path d="M52.1679 125.334C54.5041 125.334 56.3981 123.44 56.3981 121.104C56.3981 118.767 54.5041 116.874 52.1679 116.874C49.8316 116.874 47.9377 118.767 47.9377 121.104C47.9377 123.44 49.8316 125.334 52.1679 125.334Z" fill="#E6E6E6"/>
<path d="M69.7936 125.334C72.1299 125.334 74.0238 123.44 74.0238 121.104C74.0238 118.767 72.1299 116.874 69.7936 116.874C67.4574 116.874 65.5635 118.767 65.5635 121.104C65.5635 123.44 67.4574 125.334 69.7936 125.334Z" fill="#E6E6E6"/>
<path d="M52.1679 138.729C54.5041 138.729 56.3981 136.835 56.3981 134.499C56.3981 132.163 54.5041 130.269 52.1679 130.269C49.8316 130.269 47.9377 132.163 47.9377 134.499C47.9377 136.835 49.8316 138.729 52.1679 138.729Z" fill="#E6E6E6"/>
<path d="M69.7936 138.729C72.1299 138.729 74.0238 136.835 74.0238 134.499C74.0238 132.163 72.1299 130.269 69.7936 130.269C67.4574 130.269 65.5635 132.163 65.5635 134.499C65.5635 136.835 67.4574 138.729 69.7936 138.729Z" fill="#E6E6E6"/>
<path d="M87.4191 138.729C89.7554 138.729 91.6493 136.835 91.6493 134.499C91.6493 132.163 89.7554 130.269 87.4191 130.269C85.0829 130.269 83.189 132.163 83.189 134.499C83.189 136.835 85.0829 138.729 87.4191 138.729Z" fill="#E6E6E6"/>
<path d="M87.4191 125.334C89.7554 125.334 91.6493 123.44 91.6493 121.104C91.6493 118.767 89.7554 116.874 87.4191 116.874C85.0829 116.874 83.189 118.767 83.189 121.104C83.189 123.44 85.0829 125.334 87.4191 125.334Z" fill="#E6E6E6"/>
<path d="M105.045 125.334C107.381 125.334 109.275 123.44 109.275 121.104C109.275 118.767 107.381 116.874 105.045 116.874C102.709 116.874 100.815 118.767 100.815 121.104C100.815 123.44 102.709 125.334 105.045 125.334Z" fill="#52B9A7"/>
<path d="M122.671 125.334C125.007 125.334 126.901 123.44 126.901 121.104C126.901 118.767 125.007 116.874 122.671 116.874C120.334 116.874 118.44 118.767 118.44 121.104C118.44 123.44 120.334 125.334 122.671 125.334Z" fill="#52B9A7"/>
<path d="M140.296 125.334C142.632 125.334 144.526 123.44 144.526 121.104C144.526 118.767 142.632 116.874 140.296 116.874C137.96 116.874 136.066 118.767 136.066 121.104C136.066 123.44 137.96 125.334 140.296 125.334Z" fill="#52B9A7"/>
<path d="M157.922 125.334C160.258 125.334 162.152 123.44 162.152 121.104C162.152 118.767 160.258 116.874 157.922 116.874C155.586 116.874 153.692 118.767 153.692 121.104C153.692 123.44 155.586 125.334 157.922 125.334Z" fill="#E6E6E6"/>
<path d="M73.0227 43.5257C72.3523 43.5368 71.713 43.8109 71.2428 44.2889C70.7725 44.7669 70.509 45.4106 70.509 46.0811C70.509 46.7517 70.7725 47.3953 71.2428 47.8734C71.713 48.3514 72.3523 48.6255 73.0227 48.6365H137.094C137.43 48.6424 137.764 48.582 138.076 48.4589C138.388 48.3357 138.674 48.1522 138.915 47.9187C139.157 47.6853 139.35 47.4066 139.483 47.0985C139.617 46.7904 139.689 46.4589 139.694 46.1231C139.7 45.7873 139.639 45.4537 139.515 45.1414C139.392 44.829 139.208 44.5441 138.974 44.3029C138.741 44.0617 138.462 43.8689 138.154 43.7355C137.845 43.6022 137.514 43.5309 137.178 43.5257C137.15 43.5253 137.122 43.5253 137.094 43.5257H73.0227Z" fill="#3F3D56"/>
<path d="M151.624 42.8143C151.577 42.861 151.54 42.9164 151.515 42.9774C151.49 43.0384 151.477 43.1038 151.477 43.1698C151.477 43.2359 151.49 43.3013 151.515 43.3623C151.54 43.4233 151.577 43.4787 151.624 43.5254L153.783 45.684H148.46C148.326 45.684 148.198 45.737 148.104 45.8313C148.01 45.9256 147.957 46.0535 147.957 46.1869C147.957 46.3203 148.01 46.4482 148.104 46.5425C148.198 46.6368 148.326 46.6897 148.46 46.6897H153.783L151.624 48.8484C151.577 48.8951 151.54 48.9505 151.515 49.0115C151.49 49.0725 151.477 49.1379 151.477 49.2039C151.477 49.27 151.49 49.3354 151.515 49.3964C151.54 49.4574 151.577 49.5128 151.624 49.5595C151.671 49.6062 151.726 49.6432 151.787 49.6685C151.848 49.6938 151.913 49.7068 151.98 49.7068C152.046 49.7068 152.111 49.6938 152.172 49.6685C152.233 49.6432 152.288 49.6062 152.335 49.5595L155.352 46.5425C155.446 46.4482 155.499 46.3203 155.499 46.1869C155.499 46.0535 155.446 45.9256 155.352 45.8313L152.335 42.8143C152.288 42.7676 152.233 42.7305 152.172 42.7053C152.111 42.68 152.046 42.667 151.98 42.667C151.914 42.667 151.848 42.68 151.787 42.7053C151.726 42.7305 151.671 42.7676 151.624 42.8143Z" fill="#E6E6E6"/>
<path d="M58.4658 42.8143C58.5125 42.861 58.5495 42.9164 58.5748 42.9774C58.6001 43.0384 58.6131 43.1038 58.6131 43.1698C58.6131 43.2359 58.6001 43.3013 58.5748 43.3623C58.5495 43.4233 58.5125 43.4787 58.4658 43.5254L56.3072 45.6841H61.6301C61.7635 45.6841 61.8914 45.737 61.9857 45.8313C62.08 45.9256 62.133 46.0535 62.133 46.1869C62.133 46.3203 62.08 46.4482 61.9857 46.5425C61.8914 46.6368 61.7635 46.6897 61.6301 46.6897H56.3072L58.4658 48.8484C58.5601 48.9427 58.6131 49.0706 58.6131 49.2039C58.6131 49.3373 58.5601 49.4652 58.4658 49.5595C58.3715 49.6538 58.2436 49.7068 58.1102 49.7068C57.9769 49.7068 57.849 49.6538 57.7547 49.5595L54.7376 46.5425C54.6433 46.4482 54.5903 46.3203 54.5903 46.1869C54.5903 46.0535 54.6433 45.9256 54.7376 45.8313L57.7547 42.8143C57.8014 42.7676 57.8568 42.7305 57.9178 42.7053C57.9788 42.68 58.0442 42.667 58.1102 42.667C58.1763 42.667 58.2416 42.68 58.3027 42.7053C58.3637 42.7305 58.4191 42.7676 58.4658 42.8143Z" fill="#E6E6E6"/>
<path d="M69.4411 165.728C68.237 165.727 67.0445 165.964 65.9318 166.424C64.8191 166.884 63.808 167.559 62.9562 168.41C62.1045 169.261 61.4288 170.272 60.9678 171.384C60.5068 172.497 60.2695 173.689 60.2695 174.893C60.2695 176.097 60.5068 177.29 60.9678 178.402C61.4288 179.515 62.1045 180.525 62.9562 181.376C63.808 182.228 64.8191 182.903 65.9318 183.363C67.0445 183.823 68.237 184.06 69.4411 184.059H140.649C141.853 184.06 143.045 183.823 144.158 183.363C145.271 182.903 146.282 182.228 147.134 181.376C147.985 180.525 148.661 179.515 149.122 178.402C149.583 177.29 149.82 176.097 149.82 174.893C149.82 173.689 149.583 172.497 149.122 171.384C148.661 170.272 147.985 169.261 147.134 168.41C146.282 167.559 145.271 166.884 144.158 166.424C143.045 165.964 141.853 165.727 140.649 165.728H69.4411Z" fill="#E6E6E6"/>
<path d="M14.729 29.458C11.8159 29.458 8.96818 28.5942 6.54601 26.9757C4.12384 25.3573 2.23599 23.0569 1.12119 20.3656C0.00638213 17.6742 -0.285302 14.7127 0.28302 11.8555C0.851342 8.99837 2.25414 6.37392 4.31403 4.31403C6.37392 2.25414 8.99837 0.851343 11.8555 0.283021C14.7127 -0.285301 17.6742 0.00637967 20.3656 1.12118C23.0569 2.23599 25.3573 4.12384 26.9757 6.54602C28.5942 8.96819 29.458 11.8159 29.458 14.729C29.4536 18.634 27.9004 22.3779 25.1391 25.1391C22.3778 27.9004 18.634 29.4536 14.729 29.458Z" fill="#52B9A7"/>
<path d="M20.5407 13.2761H16.182V8.9173C16.182 8.53196 16.0289 8.16239 15.7564 7.88991C15.4839 7.61743 15.1144 7.46436 14.729 7.46436C14.3437 7.46436 13.9741 7.61743 13.7016 7.88991C13.4291 8.16239 13.2761 8.53196 13.2761 8.9173V13.2761H8.91727C8.53194 13.2761 8.16238 13.4292 7.88991 13.7016C7.61743 13.9741 7.46436 14.3437 7.46436 14.729C7.46436 15.1143 7.61743 15.4839 7.88991 15.7564C8.16238 16.0289 8.53194 16.1819 8.91727 16.1819H13.2761V20.5407C13.2761 20.9261 13.4291 21.2956 13.7016 21.5681C13.9741 21.8406 14.3437 21.9937 14.729 21.9937C15.1144 21.9937 15.4839 21.8406 15.7564 21.5681C16.0289 21.2956 16.182 20.9261 16.182 20.5407V16.1819H20.5407C20.926 16.1819 21.2956 16.0289 21.568 15.7564C21.8405 15.4839 21.9936 15.1143 21.9936 14.729C21.9936 14.3437 21.8405 13.9741 21.568 13.7016C21.2956 13.4292 20.926 13.2761 20.5407 13.2761Z" fill="white"/>
</g>
<defs>
<clipPath id="clip0">
<rect width="333.3" height="290" fill="white"/>
</clipPath>
</defs>
</svg>
