<svg width="421" height="367" viewBox="0 0 421 367" fill="none" xmlns="http://www.w3.org/2000/svg">
<g clip-path="url(#clip0)">
<mask id="path-1-inside-1" fill="white">
<path d="M246.411 271.303H18.9591C17.8797 271.302 16.8449 270.872 16.0816 270.109C15.3183 269.346 14.889 268.311 14.8878 267.232V19.1519C14.889 18.0725 15.3183 17.0376 16.0816 16.2743C16.8449 15.5111 17.8797 15.0817 18.9591 15.0806H246.411C247.49 15.0817 248.525 15.5111 249.288 16.2743C250.052 17.0376 250.481 18.0725 250.482 19.1519V267.232C250.481 268.311 250.052 269.346 249.288 270.109C248.525 270.872 247.49 271.302 246.411 271.303ZM18.9591 16.7091C18.3115 16.7098 17.6906 16.9674 17.2326 17.4254C16.7746 17.8833 16.5171 18.5042 16.5163 19.1519V267.232C16.5171 267.879 16.7746 268.5 17.2326 268.958C17.6906 269.416 18.3115 269.674 18.9591 269.674H246.411C247.058 269.674 247.679 269.416 248.137 268.958C248.595 268.5 248.853 267.879 248.854 267.232V19.1519C248.853 18.5042 248.595 17.8833 248.137 17.4254C247.679 16.9674 247.058 16.7098 246.411 16.7091H18.9591Z"/>
</mask>
<path d="M246.411 271.303H18.9591C17.8797 271.302 16.8449 270.872 16.0816 270.109C15.3183 269.346 14.889 268.311 14.8878 267.232V19.1519C14.889 18.0725 15.3183 17.0376 16.0816 16.2743C16.8449 15.5111 17.8797 15.0817 18.9591 15.0806H246.411C247.49 15.0817 248.525 15.5111 249.288 16.2743C250.052 17.0376 250.481 18.0725 250.482 19.1519V267.232C250.481 268.311 250.052 269.346 249.288 270.109C248.525 270.872 247.49 271.302 246.411 271.303ZM18.9591 16.7091C18.3115 16.7098 17.6906 16.9674 17.2326 17.4254C16.7746 17.8833 16.5171 18.5042 16.5163 19.1519V267.232C16.5171 267.879 16.7746 268.5 17.2326 268.958C17.6906 269.416 18.3115 269.674 18.9591 269.674H246.411C247.058 269.674 247.679 269.416 248.137 268.958C248.595 268.5 248.853 267.879 248.854 267.232V19.1519C248.853 18.5042 248.595 17.8833 248.137 17.4254C247.679 16.9674 247.058 16.7098 246.411 16.7091H18.9591Z" fill="black"/>
<path d="M246.411 271.303V273.606H246.413L246.411 271.303ZM18.9591 271.303L18.9566 273.606H18.9591V271.303ZM14.8878 267.232H12.5846L12.5846 267.234L14.8878 267.232ZM14.8878 19.1519L12.5846 19.1494V19.1519H14.8878ZM18.9591 15.0806V12.7774L18.9566 12.7774L18.9591 15.0806ZM246.411 15.0806L246.413 12.7774H246.411V15.0806ZM250.482 19.1519H252.785V19.1494L250.482 19.1519ZM250.482 267.232L252.785 267.234V267.232H250.482ZM18.9591 16.7091V14.4059L18.9566 14.4059L18.9591 16.7091ZM16.5163 19.1519L14.2132 19.1494V19.1519H16.5163ZM16.5163 267.232H14.2132L14.2132 267.234L16.5163 267.232ZM18.9591 269.674L18.9566 271.978H18.9591V269.674ZM246.411 269.674V271.978H246.413L246.411 269.674ZM248.854 267.232L251.157 267.234V267.232H248.854ZM248.854 19.1519H251.157L251.157 19.1494L248.854 19.1519ZM246.411 16.7091L246.413 14.4059H246.411V16.7091ZM246.411 269H18.9591V273.606H246.411V269ZM18.9617 269C18.4922 268.999 18.0421 268.813 17.7102 268.481L14.453 271.738C15.6476 272.932 17.2672 273.604 18.9566 273.606L18.9617 269ZM17.7102 268.481C17.3782 268.149 17.1915 267.699 17.191 267.229L12.5846 267.234C12.5865 268.924 13.2584 270.543 14.453 271.738L17.7102 268.481ZM17.191 267.232V19.1519H12.5846V267.232H17.191ZM17.191 19.1544C17.1915 18.685 17.3782 18.2349 17.7102 17.9029L14.453 14.6457C13.2584 15.8403 12.5865 17.46 12.5846 19.1494L17.191 19.1544ZM17.7102 17.9029C18.0421 17.571 18.4922 17.3843 18.9617 17.3837L18.9566 12.7774C17.2672 12.7792 15.6476 13.4512 14.453 14.6457L17.7102 17.9029ZM18.9591 17.3838H246.411V12.7774H18.9591V17.3838ZM246.408 17.3837C246.878 17.3843 247.328 17.571 247.66 17.9029L250.917 14.6457C249.722 13.4512 248.103 12.7792 246.413 12.7774L246.408 17.3837ZM247.66 17.9029C247.992 18.2349 248.178 18.685 248.179 19.1544L252.785 19.1494C252.783 17.46 252.112 15.8403 250.917 14.6457L247.66 17.9029ZM248.179 19.1519V267.232H252.785V19.1519H248.179ZM248.179 267.229C248.178 267.699 247.992 268.149 247.66 268.481L250.917 271.738C252.112 270.543 252.783 268.924 252.785 267.234L248.179 267.229ZM247.66 268.481C247.328 268.813 246.878 268.999 246.408 269L246.413 273.606C248.103 273.604 249.722 272.932 250.917 271.738L247.66 268.481ZM18.9566 14.4059C17.699 14.4073 16.4933 14.9075 15.604 15.7968L18.8612 19.054C18.8878 19.0273 18.924 19.0123 18.9617 19.0123L18.9566 14.4059ZM15.604 15.7968C14.7147 16.686 14.2145 17.8918 14.2132 19.1494L18.8195 19.1544C18.8196 19.1167 18.8346 19.0806 18.8612 19.054L15.604 15.7968ZM14.2132 19.1519V267.232H18.8195V19.1519H14.2132ZM14.2132 267.234C14.2145 268.492 14.7147 269.698 15.604 270.587L18.8612 267.33C18.8346 267.303 18.8196 267.267 18.8195 267.229L14.2132 267.234ZM15.604 270.587C16.4933 271.476 17.699 271.976 18.9566 271.978L18.9617 267.371C18.924 267.371 18.8879 267.356 18.8612 267.33L15.604 270.587ZM18.9591 271.978H246.411V267.371H18.9591V271.978ZM246.413 271.978C247.671 271.976 248.877 271.476 249.766 270.587L246.509 267.33C246.482 267.356 246.446 267.371 246.408 267.371L246.413 271.978ZM249.766 270.587C250.655 269.698 251.155 268.492 251.157 267.234L246.55 267.229C246.55 267.267 246.535 267.303 246.509 267.33L249.766 270.587ZM251.157 267.232V19.1519H246.55V267.232H251.157ZM251.157 19.1494C251.155 17.8918 250.655 16.686 249.766 15.7968L246.509 19.054C246.535 19.0806 246.55 19.1167 246.55 19.1544L251.157 19.1494ZM249.766 15.7968C248.877 14.9075 247.671 14.4073 246.413 14.4059L246.408 19.0123C246.446 19.0123 246.482 19.0273 246.509 19.054L249.766 15.7968ZM246.411 14.4059H18.9591V19.0123H246.411V14.4059Z" fill="black" mask="url(#path-1-inside-1)"/>
<path d="M65.8947 107.552C68.8457 107.552 71.238 105.159 71.238 102.208C71.238 99.2575 68.8457 96.8652 65.8947 96.8652C62.9438 96.8652 60.5515 99.2575 60.5515 102.208C60.5515 105.159 62.9438 107.552 65.8947 107.552Z" fill="black"/>
<path d="M88.1584 107.552C91.1094 107.552 93.5016 105.159 93.5016 102.208C93.5016 99.2575 91.1094 96.8652 88.1584 96.8652C85.2074 96.8652 82.8152 99.2575 82.8152 102.208C82.8152 105.159 85.2074 107.552 88.1584 107.552Z" fill="black"/>
<path d="M110.422 107.552C113.373 107.552 115.765 105.159 115.765 102.208C115.765 99.2575 113.373 96.8652 110.422 96.8652C107.471 96.8652 105.078 99.2575 105.078 102.208C105.078 105.159 107.471 107.552 110.422 107.552Z" fill="#52B9A7"/>
<path d="M132.685 107.552C135.636 107.552 138.028 105.159 138.028 102.208C138.028 99.2575 135.636 96.8652 132.685 96.8652C129.734 96.8652 127.342 99.2575 127.342 102.208C127.342 105.159 129.734 107.552 132.685 107.552Z" fill="#52B9A7"/>
<path d="M154.948 107.552C157.899 107.552 160.292 105.159 160.292 102.208C160.292 99.2575 157.899 96.8652 154.948 96.8652C151.997 96.8652 149.605 99.2575 149.605 102.208C149.605 105.159 151.997 107.552 154.948 107.552Z" fill="#52B9A7"/>
<path d="M177.212 107.552C180.163 107.552 182.555 105.159 182.555 102.208C182.555 99.2575 180.163 96.8652 177.212 96.8652C174.261 96.8652 171.869 99.2575 171.869 102.208C171.869 105.159 174.261 107.552 177.212 107.552Z" fill="black"/>
<path d="M199.475 107.552C202.426 107.552 204.819 105.159 204.819 102.208C204.819 99.2575 202.426 96.8652 199.475 96.8652C196.524 96.8652 194.132 99.2575 194.132 102.208C194.132 105.159 196.524 107.552 199.475 107.552Z" fill="black"/>
<path d="M65.8947 124.472C68.8457 124.472 71.238 122.08 71.238 119.129C71.238 116.178 68.8457 113.786 65.8947 113.786C62.9438 113.786 60.5515 116.178 60.5515 119.129C60.5515 122.08 62.9438 124.472 65.8947 124.472Z" fill="black"/>
<path d="M88.1584 124.472C91.1094 124.472 93.5016 122.08 93.5016 119.129C93.5016 116.178 91.1094 113.786 88.1584 113.786C85.2074 113.786 82.8152 116.178 82.8152 119.129C82.8152 122.08 85.2074 124.472 88.1584 124.472Z" fill="black"/>
<path d="M110.422 124.472C113.373 124.472 115.765 122.08 115.765 119.129C115.765 116.178 113.373 113.786 110.422 113.786C107.471 113.786 105.078 116.178 105.078 119.129C105.078 122.08 107.471 124.472 110.422 124.472Z" fill="black"/>
<path d="M132.685 124.472C135.636 124.472 138.028 122.08 138.028 119.129C138.028 116.178 135.636 113.786 132.685 113.786C129.734 113.786 127.342 116.178 127.342 119.129C127.342 122.08 129.734 124.472 132.685 124.472Z" fill="black"/>
<path d="M154.948 124.472C157.899 124.472 160.292 122.08 160.292 119.129C160.292 116.178 157.899 113.786 154.948 113.786C151.997 113.786 149.605 116.178 149.605 119.129C149.605 122.08 151.997 124.472 154.948 124.472Z" fill="black"/>
<path d="M177.212 124.472C180.163 124.472 182.555 122.08 182.555 119.129C182.555 116.178 180.163 113.786 177.212 113.786C174.261 113.786 171.869 116.178 171.869 119.129C171.869 122.08 174.261 124.472 177.212 124.472Z" fill="black"/>
<path d="M199.475 124.472C202.426 124.472 204.819 122.08 204.819 119.129C204.819 116.178 202.426 113.786 199.475 113.786C196.524 113.786 194.132 116.178 194.132 119.129C194.132 122.08 196.524 124.472 199.475 124.472Z" fill="black"/>
<path d="M65.8947 141.393C68.8457 141.393 71.238 139 71.238 136.049C71.238 133.098 68.8457 130.706 65.8947 130.706C62.9438 130.706 60.5515 133.098 60.5515 136.049C60.5515 139 62.9438 141.393 65.8947 141.393Z" fill="#52B9A7"/>
<path d="M88.1584 141.393C91.1094 141.393 93.5016 139 93.5016 136.049C93.5016 133.098 91.1094 130.706 88.1584 130.706C85.2074 130.706 82.8152 133.098 82.8152 136.049C82.8152 139 85.2074 141.393 88.1584 141.393Z" fill="#52B9A7"/>
<path d="M110.422 141.393C113.373 141.393 115.765 139 115.765 136.049C115.765 133.098 113.373 130.706 110.422 130.706C107.471 130.706 105.078 133.098 105.078 136.049C105.078 139 107.471 141.393 110.422 141.393Z" fill="#52B9A7"/>
<path d="M132.685 141.393C135.636 141.393 138.028 139 138.028 136.049C138.028 133.098 135.636 130.706 132.685 130.706C129.734 130.706 127.342 133.098 127.342 136.049C127.342 139 129.734 141.393 132.685 141.393Z" fill="black"/>
<path d="M154.948 141.393C157.899 141.393 160.292 139 160.292 136.049C160.292 133.098 157.899 130.706 154.948 130.706C151.997 130.706 149.605 133.098 149.605 136.049C149.605 139 151.997 141.393 154.948 141.393Z" fill="black"/>
<path d="M177.212 141.393C180.163 141.393 182.555 139 182.555 136.049C182.555 133.098 180.163 130.706 177.212 130.706C174.261 130.706 171.869 133.098 171.869 136.049C171.869 139 174.261 141.393 177.212 141.393Z" fill="black"/>
<path d="M199.475 141.393C202.426 141.393 204.819 139 204.819 136.049C204.819 133.098 202.426 130.706 199.475 130.706C196.524 130.706 194.132 133.098 194.132 136.049C194.132 139 196.524 141.393 199.475 141.393Z" fill="black"/>
<path d="M65.8947 158.313C68.8457 158.313 71.238 155.921 71.238 152.97C71.238 150.019 68.8457 147.626 65.8947 147.626C62.9438 147.626 60.5515 150.019 60.5515 152.97C60.5515 155.921 62.9438 158.313 65.8947 158.313Z" fill="black"/>
<path d="M88.1584 158.313C91.1094 158.313 93.5016 155.921 93.5016 152.97C93.5016 150.019 91.1094 147.626 88.1584 147.626C85.2074 147.626 82.8152 150.019 82.8152 152.97C82.8152 155.921 85.2074 158.313 88.1584 158.313Z" fill="black"/>
<path d="M65.8947 175.233C68.8457 175.233 71.238 172.841 71.238 169.89C71.238 166.939 68.8457 164.546 65.8947 164.546C62.9438 164.546 60.5515 166.939 60.5515 169.89C60.5515 172.841 62.9438 175.233 65.8947 175.233Z" fill="black"/>
<path d="M88.1584 175.233C91.1094 175.233 93.5016 172.841 93.5016 169.89C93.5016 166.939 91.1094 164.546 88.1584 164.546C85.2074 164.546 82.8152 166.939 82.8152 169.89C82.8152 172.841 85.2074 175.233 88.1584 175.233Z" fill="black"/>
<path d="M110.422 175.233C113.373 175.233 115.765 172.841 115.765 169.89C115.765 166.939 113.373 164.546 110.422 164.546C107.471 164.546 105.078 166.939 105.078 169.89C105.078 172.841 107.471 175.233 110.422 175.233Z" fill="black"/>
<path d="M110.422 158.313C113.373 158.313 115.765 155.921 115.765 152.97C115.765 150.019 113.373 147.626 110.422 147.626C107.471 147.626 105.078 150.019 105.078 152.97C105.078 155.921 107.471 158.313 110.422 158.313Z" fill="black"/>
<path d="M132.685 158.313C135.636 158.313 138.028 155.921 138.028 152.97C138.028 150.019 135.636 147.626 132.685 147.626C129.734 147.626 127.342 150.019 127.342 152.97C127.342 155.921 129.734 158.313 132.685 158.313Z" fill="#52B9A7"/>
<path d="M154.948 158.313C157.899 158.313 160.292 155.921 160.292 152.97C160.292 150.019 157.899 147.626 154.948 147.626C151.997 147.626 149.605 150.019 149.605 152.97C149.605 155.921 151.997 158.313 154.948 158.313Z" fill="#52B9A7"/>
<path d="M177.212 158.313C180.163 158.313 182.555 155.921 182.555 152.97C182.555 150.019 180.163 147.626 177.212 147.626C174.261 147.626 171.869 150.019 171.869 152.97C171.869 155.921 174.261 158.313 177.212 158.313Z" fill="#52B9A7"/>
<path d="M199.475 158.313C202.426 158.313 204.819 155.921 204.819 152.97C204.819 150.019 202.426 147.626 199.475 147.626C196.524 147.626 194.132 150.019 194.132 152.97C194.132 155.921 196.524 158.313 199.475 158.313Z" fill="black"/>
<path d="M92.237 54.979C91.3901 54.9929 90.5826 55.3391 89.9887 55.9429C89.3947 56.5467 89.0619 57.3598 89.0619 58.2067C89.0619 59.0537 89.3947 59.8668 89.9887 60.4706C90.5826 61.0744 91.3901 61.4206 92.237 61.4345H173.167C173.591 61.4419 174.013 61.3657 174.408 61.2101C174.802 61.0546 175.162 60.8227 175.467 60.5279C175.772 60.233 176.016 59.881 176.185 59.4918C176.354 59.1026 176.445 58.684 176.452 58.2598C176.459 57.8356 176.382 57.4142 176.226 57.0197C176.07 56.6252 175.838 56.2653 175.542 55.9606C175.247 55.6559 174.895 55.4124 174.506 55.2439C174.116 55.0755 173.697 54.9855 173.273 54.979C173.238 54.9784 173.203 54.9784 173.167 54.979H92.237Z" fill="#3F3D56"/>
<path d="M191.52 54.0801C191.461 54.1391 191.415 54.2091 191.383 54.2861C191.351 54.3632 191.334 54.4458 191.334 54.5292C191.334 54.6126 191.351 54.6952 191.383 54.7723C191.415 54.8493 191.461 54.9194 191.52 54.9783L194.247 57.705H187.523C187.355 57.705 187.193 57.7719 187.074 57.891C186.955 58.0101 186.888 58.1717 186.888 58.3401C186.888 58.5086 186.955 58.6701 187.074 58.7892C187.193 58.9084 187.355 58.9753 187.523 58.9753H194.247L191.52 61.7019C191.461 61.7609 191.415 61.8309 191.383 61.908C191.351 61.985 191.334 62.0676 191.334 62.151C191.334 62.2344 191.351 62.317 191.383 62.3941C191.415 62.4712 191.461 62.5412 191.52 62.6002C191.579 62.6591 191.649 62.7059 191.726 62.7378C191.804 62.7698 191.886 62.7862 191.97 62.7862C192.053 62.7862 192.136 62.7698 192.213 62.7379C192.29 62.7059 192.36 62.6592 192.419 62.6002L196.23 58.7893C196.349 58.6701 196.416 58.5086 196.416 58.3401C196.416 58.1717 196.349 58.0101 196.23 57.891L192.419 54.0801C192.36 54.0211 192.29 53.9743 192.213 53.9424C192.136 53.9105 192.053 53.894 191.97 53.894C191.886 53.894 191.804 53.9105 191.726 53.9424C191.649 53.9743 191.579 54.0211 191.52 54.0801Z" fill="black"/>
<path d="M73.8495 54.0801C73.9085 54.1391 73.9553 54.2091 73.9872 54.2861C74.0192 54.3632 74.0356 54.4458 74.0356 54.5292C74.0356 54.6126 74.0192 54.6952 73.9872 54.7723C73.9553 54.8493 73.9085 54.9194 73.8495 54.9783L71.1229 57.705H77.8465C78.015 57.705 78.1765 57.7719 78.2956 57.891C78.4147 58.0101 78.4816 58.1717 78.4816 58.3401C78.4816 58.5086 78.4147 58.6701 78.2956 58.7893C78.1765 58.9084 78.015 58.9753 77.8465 58.9753H71.1229L73.8495 61.7019C73.9686 61.821 74.0356 61.9826 74.0356 62.1511C74.0356 62.3195 73.9687 62.4811 73.8496 62.6002C73.7304 62.7193 73.5689 62.7862 73.4004 62.7862C73.232 62.7862 73.0704 62.7193 72.9513 62.6002L69.1404 58.7893C69.0213 58.6701 68.9543 58.5086 68.9543 58.3401C68.9543 58.1717 69.0213 58.0101 69.1404 57.891L72.9513 54.0801C73.0103 54.0211 73.0803 53.9743 73.1574 53.9424C73.2344 53.9105 73.317 53.894 73.4004 53.894C73.4838 53.894 73.5664 53.9105 73.6435 53.9424C73.7205 53.9743 73.7906 54.0211 73.8495 54.0801Z" fill="black"/>
<path d="M87.7127 209.335C86.1917 209.334 84.6855 209.633 83.28 210.214C81.8745 210.795 80.5973 211.648 79.5214 212.723C78.4456 213.798 77.5921 215.075 77.0098 216.48C76.4275 217.885 76.1278 219.391 76.1278 220.912C76.1278 222.433 76.4275 223.939 77.0098 225.344C77.5921 226.749 78.4456 228.026 79.5214 229.101C80.5973 230.176 81.8745 231.029 83.28 231.61C84.6855 232.191 86.1917 232.49 87.7127 232.489H177.657C179.178 232.49 180.684 232.191 182.09 231.61C183.495 231.029 184.772 230.176 185.848 229.101C186.924 228.026 187.778 226.749 188.36 225.344C188.942 223.939 189.242 222.433 189.242 220.912C189.242 219.391 188.942 217.885 188.36 216.48C187.778 215.075 186.924 213.798 185.848 212.723C184.772 211.648 183.495 210.795 182.09 210.214C180.684 209.633 179.178 209.334 177.657 209.335H87.7127Z" fill="black"/>
<path d="M18.6046 37.2092C14.925 37.2092 11.328 36.1181 8.26845 34.0738C5.20893 32.0295 2.82434 29.1238 1.4162 25.7243C0.00806144 22.3247 -0.360372 18.584 0.357491 14.975C1.07535 11.3661 2.84727 8.05107 5.44917 5.44917C8.05107 2.84727 11.3661 1.07535 14.975 0.357492C18.584 -0.360371 22.3247 0.00805833 25.7243 1.4162C29.1238 2.82434 32.0295 5.20894 34.0738 8.26845C36.1181 11.328 37.2092 14.925 37.2092 18.6046C37.2037 23.5372 35.2417 28.2661 31.7539 31.7539C28.2661 35.2418 23.5372 37.2037 18.6046 37.2092Z" fill="#52B9A7"/>
<path d="M25.9454 16.7697H20.4398V11.264C20.4398 10.7772 20.2464 10.3104 19.9022 9.96625C19.5581 9.62207 19.0913 9.42871 18.6045 9.42871C18.1178 9.42871 17.651 9.62207 17.3068 9.96625C16.9626 10.3104 16.7693 10.7772 16.7693 11.264V16.7697H11.2636C10.7768 16.7697 10.31 16.963 9.96587 17.3072C9.6217 17.6514 9.42834 18.1182 9.42834 18.6049C9.42834 19.0916 9.6217 19.5584 9.96587 19.9026C10.31 20.2468 10.7768 20.4401 11.2636 20.4401H16.7693V25.9458C16.7693 26.4326 16.9626 26.8994 17.3068 27.2435C17.651 27.5877 18.1178 27.7811 18.6045 27.7811C19.0913 27.7811 19.5581 27.5877 19.9022 27.2435C20.2464 26.8994 20.4398 26.4326 20.4398 25.9458V20.4401H25.9454C26.4321 20.4401 26.8989 20.2468 27.2431 19.9026C27.5873 19.5584 27.7806 19.0916 27.7806 18.6049C27.7806 18.1182 27.5873 17.6514 27.2431 17.3072C26.8989 16.963 26.4321 16.7697 25.9454 16.7697Z" fill="white"/>
</g>
<defs>
<clipPath id="clip0">
<rect width="421" height="366.307" fill="white"/>
</clipPath>
</defs>
</svg>
