<svg width="100" height="100" viewBox="0 0 100 100" fill="none" xmlns="http://www.w3.org/2000/svg">
<path d="M34 93C32.5 92.4 32 91.3 32 89.8C32.1 88.4 32 86.9 32 85.5C32.1 80.3 36 76.3 41.2 76.2C47.4 76.1 53.6 76.1 59.8 76.2C65 76.3 68.9 80.3 69 85.5C69 87 68.9 88.5 69 89.9C69.1 91.4 68.5 92.5 67 93C56.1 93 45 93 34 93Z" fill="#52B9A7"/>
<path d="M90.9996 37.3999C90.8996 37.4999 90.8996 37.6999 90.7996 37.7999C89.9996 40.6999 87.7996 42.3999 84.8996 42.3999C84.0996 42.3999 83.5996 42.5999 83.0996 43.2999C82.0996 44.7999 80.8996 46.2999 79.7996 47.6999C78.3996 49.4999 76.7996 49.5999 75.2996 47.8999C73.8996 46.2999 72.4996 44.6999 71.0996 43.0999C70.8996 42.8999 70.7996 42.6999 70.5996 42.4999C72.9996 40.8999 74.6996 38.7999 75.3996 36.0999C75.6996 35.0999 75.7996 34.0999 75.7996 33.0999C75.7996 28.0999 75.7996 23.0999 75.7996 17.9999C75.7996 17.1999 75.6996 16.2999 75.5996 15.3999C76.5996 15.3999 77.5996 15.3999 78.6996 15.3999C80.6996 15.3999 82.6996 15.3999 84.6996 15.3999C87.9996 15.3999 90.0996 17.0999 90.8996 20.1999C90.8996 20.2999 90.9996 20.2999 90.9996 20.3999C90.9996 26.0999 90.9996 31.7999 90.9996 37.3999Z" fill="#52B9A7"/>
<path d="M90.9996 84.2999C90.3996 85.6999 89.2996 86.2999 87.7996 86.2999C83.5996 86.1999 79.3996 86.2999 75.1996 86.2999C74.8996 86.2999 74.5996 86.2999 74.1996 86.2999C74.2996 81.2999 72.4996 77.2999 68.5996 74.1999C69.8996 73.2999 71.3996 72.8999 72.8996 72.8999C75.9996 72.8999 79.0996 72.7999 82.1996 72.8999C86.3996 72.9999 89.9996 76.1999 90.8996 80.3999C90.8996 80.5999 90.9996 80.6999 91.0996 80.8999C90.9996 81.9999 90.9996 83.1999 90.9996 84.2999Z" fill="#52B9A7"/>
<path d="M50.5998 12.1001C55.1998 12.1001 59.8998 12.1001 64.4998 12.1001C68.2998 12.1001 70.7998 14.6001 70.7998 18.4001C70.7998 23.2001 70.7998 28.0001 70.7998 32.8001C70.7998 36.6001 68.2998 39.1001 64.4998 39.1001C62.4998 39.1001 60.3998 39.1001 58.3998 39.1001C57.7998 39.1001 57.3998 39.3001 56.9998 39.7001C55.5998 41.4001 54.0998 43.1001 52.5998 44.8001C51.2998 46.3001 49.5998 46.3001 48.2998 44.6001C47.0998 43.0001 45.8998 41.5001 44.7998 39.9001C44.3998 39.4001 43.9998 39.1001 43.2998 39.1001C41.0998 39.2001 38.7998 39.1001 36.5998 39.1001C32.7998 39.1001 30.2998 36.6001 30.2998 32.8001C30.2998 28.0001 30.2998 23.2001 30.2998 18.4001C30.2998 14.7001 32.7998 12.2001 36.4998 12.2001C41.2998 12.1001 45.8998 12.1001 50.5998 12.1001Z" fill="#52B9A7"/>
<path d="M25.5002 15.5003C25.4002 16.9003 25.4002 18.2003 25.3002 19.5003C25.3002 23.7003 25.4002 27.9003 25.3002 32.1003C25.2002 36.5003 26.8002 40.0003 30.6002 42.5003C30.3002 42.8003 30.1002 43.1003 29.8002 43.4003C28.4002 44.9003 27.1002 46.5003 25.7002 48.0003C24.4002 49.5003 22.7002 49.4003 21.5002 47.8003C20.3002 46.3003 19.1002 44.7003 18.0002 43.1003C17.5002 42.4003 17.0002 42.2003 16.3002 42.2003C13.5002 42.2003 11.2002 40.6003 10.5002 38.0003C10.3002 37.4003 10.3002 36.8003 10.2002 36.1003C10.2002 31.2003 10.2002 26.3003 10.2002 21.3003C10.2002 18.0003 12.4002 15.4003 15.6002 15.3003C18.9002 15.4003 22.2002 15.5003 25.5002 15.5003Z" fill="#52B9A7"/>
<path d="M50.4997 71.0999C44.8997 71.0999 40.3997 66.4999 40.4997 60.8999C40.4997 55.3999 45.0997 50.8999 50.5997 50.8999C56.1997 50.8999 60.6997 55.4999 60.6997 61.0999C60.5997 66.5999 56.0997 71.0999 50.4997 71.0999Z" fill="#52B9A7"/>
<path d="M32.5999 74.1002C28.6999 77.2002 26.8999 81.2002 26.9999 86.2002C26.6999 86.2002 26.3999 86.2002 26.1999 86.2002C21.7999 86.2002 17.4999 86.2002 13.0999 86.2002C11.0999 86.2002 10.1999 85.2002 10.1999 83.2002C10.0999 80.3002 10.6999 77.7002 12.7999 75.6002C14.5999 73.7002 16.7999 72.8002 19.3999 72.7002C22.2999 72.7002 25.0999 72.7002 27.9999 72.7002C29.5999 72.8002 31.0999 73.2002 32.5999 74.1002Z" fill="#52B9A7"/>
<path d="M84.2002 62.5999C84.2002 66.2999 81.3002 69.2999 77.5002 69.3999C73.8002 69.3999 70.7002 66.3999 70.7002 62.6999C70.7002 58.9999 73.7002 55.8999 77.4002 55.8999C81.2002 55.8999 84.2002 58.8999 84.2002 62.5999Z" fill="#52B9A7"/>
<path d="M16.8994 62.7C16.8994 59 19.8994 56 23.5994 56C27.2994 56 30.3994 59.1 30.3994 62.8C30.3994 66.5 27.2994 69.5 23.5994 69.5C19.8994 69.4 16.8994 66.4 16.8994 62.7Z" fill="#52B9A7"/>
</svg>
