<svg width="24" height="24" viewBox="0 0 24 24" fill="none" xmlns="http://www.w3.org/2000/svg">
<path fill-rule="evenodd" clip-rule="evenodd" d="M16.0001 6.0003C15.2044 6.0003 14.4413 6.31639 13.8787 6.87902C13.3161 7.44166 13.0001 8.20476 13.0001 9.00045C13.0001 9.79613 13.3161 10.5592 13.8787 11.1219C14.4413 11.6845 15.2044 12.0006 16.0001 12.0006C16.7957 12.0006 17.5588 11.6845 18.1214 11.1219C18.684 10.5592 19.0001 9.79613 19.0001 9.00045C19.0001 8.20476 18.684 7.44166 18.1214 6.87902C17.5588 6.31639 16.7957 6.0003 16.0001 6.0003ZM11.0001 9.00045C11.0001 8.18536 11.1993 7.38264 11.5805 6.66217C11.9616 5.94171 12.5131 5.32534 13.1869 4.86675C13.8607 4.40816 14.6364 4.12125 15.4464 4.03099C16.2565 3.94074 17.0763 4.04989 17.8345 4.34893C18.5927 4.64797 19.2663 5.12783 19.7967 5.74674C20.327 6.36565 20.6981 7.10483 20.8774 7.89993C21.0568 8.69502 21.0391 9.52192 20.8259 10.3086C20.6127 11.0953 20.2104 11.818 19.6541 12.4136C21.3505 12.9655 22.8172 14.0624 23.8261 15.5338C23.9668 15.7529 24.0164 16.0184 23.9645 16.2736C23.9125 16.5289 23.763 16.7537 23.5478 16.9004C23.3326 17.0471 23.0686 17.1041 22.8121 17.0591C22.5555 17.0142 22.3266 16.8709 22.1741 16.6598C21.1981 15.2277 19.4181 14.0007 17.0001 14.0007C13.1661 14.0007 11.0001 17.0748 11.0001 19.0009C11.0001 19.2662 10.8947 19.5205 10.7072 19.7081C10.5196 19.8956 10.2653 20.001 10.0001 20.001C9.73484 20.001 9.48049 19.8956 9.29295 19.7081C9.10542 19.5205 9.00006 19.2662 9.00006 19.0009C9.00006 18.3089 9.15806 17.5709 9.46006 16.8438C9.38154 16.793 9.31051 16.7314 9.24906 16.6608C8.42806 15.7268 7.15406 15.0007 5.50006 15.0007C3.84606 15.0007 2.57206 15.7268 1.75106 16.6608C1.57329 16.8497 1.32911 16.962 1.07005 16.9743C0.810993 16.9865 0.557322 16.8976 0.362572 16.7263C0.167821 16.555 0.0472247 16.3148 0.0262326 16.0563C0.00524061 15.7978 0.085495 15.5412 0.250059 15.3408C0.840576 14.6687 1.55664 14.1183 2.35806 13.7207C1.71777 13.0958 1.27828 12.2942 1.09573 11.4183C0.913177 10.5423 0.995852 9.63191 1.33319 8.80322C1.67054 7.97453 2.24723 7.26521 2.98961 6.76586C3.732 6.26652 4.60638 5.99981 5.50106 5.99981C6.39574 5.99981 7.27012 6.26652 8.0125 6.76586C8.75489 7.26521 9.33158 7.97453 9.66892 8.80322C10.0063 9.63191 10.0889 10.5423 9.90639 11.4183C9.72384 12.2942 9.28435 13.0958 8.64406 13.7207C9.33782 14.065 9.96837 14.5242 10.5091 15.0787C11.1882 14.2241 12.0332 13.5155 12.9931 12.9956C12.3736 12.5301 11.871 11.9267 11.5251 11.2333C11.1791 10.5398 10.9994 9.77538 11.0001 9.00045ZM3.00006 10.5005C3.00006 9.83745 3.26345 9.20153 3.73229 8.73267C4.20113 8.2638 4.83702 8.0004 5.50006 8.0004C6.1631 8.0004 6.79899 8.2638 7.26783 8.73267C7.73667 9.20153 8.00006 9.83745 8.00006 10.5005C8.00006 11.1636 7.73667 11.7995 7.26783 12.2684C6.79899 12.7372 6.1631 13.0006 5.50006 13.0006C4.83702 13.0006 4.20113 12.7372 3.73229 12.2684C3.26345 11.7995 3.00006 11.1636 3.00006 10.5005Z" fill="#232222"/>
</svg>
