<svg width="124" height="110" viewBox="0 0 124 110" fill="none" xmlns="http://www.w3.org/2000/svg">
<mask id="path-1-inside-1_396:1229" fill="white">
<path fill-rule="evenodd" clip-rule="evenodd" d="M37.6613 77.9108C33.2247 77.9108 29.6281 81.5074 29.6281 85.944C29.6281 89.5561 32.0122 92.6114 35.2927 93.6222C32.0123 94.6331 29.6283 97.6884 29.6283 101.3C29.6283 105.737 33.2249 109.334 37.6615 109.334H90.2502C94.6868 109.334 98.2834 105.737 98.2834 101.3C98.2834 97.6883 95.8993 94.633 92.6188 93.6222C95.8992 92.6113 98.2832 89.5561 98.2832 85.944C98.2832 81.5074 94.6866 77.9108 90.25 77.9108H37.6613Z"/>
</mask>
<path fill-rule="evenodd" clip-rule="evenodd" d="M37.6613 77.9108C33.2247 77.9108 29.6281 81.5074 29.6281 85.944C29.6281 89.5561 32.0122 92.6114 35.2927 93.6222C32.0123 94.6331 29.6283 97.6884 29.6283 101.3C29.6283 105.737 33.2249 109.334 37.6615 109.334H90.2502C94.6868 109.334 98.2834 105.737 98.2834 101.3C98.2834 97.6883 95.8993 94.633 92.6188 93.6222C95.8992 92.6113 98.2832 89.5561 98.2832 85.944C98.2832 81.5074 94.6866 77.9108 90.25 77.9108H37.6613Z" fill="#F47D45"/>
<path d="M35.2927 93.6222L35.5871 94.5779L38.6885 93.6222L35.5871 92.6666L35.2927 93.6222ZM92.6188 93.6222L92.3244 92.6665L89.223 93.6222L92.3244 94.5779L92.6188 93.6222ZM30.6281 85.944C30.6281 82.0596 33.777 78.9108 37.6613 78.9108V76.9108C32.6724 76.9108 28.6281 80.9551 28.6281 85.944H30.6281ZM35.5871 92.6666C32.7142 91.7813 30.6281 89.105 30.6281 85.944H28.6281C28.6281 90.0073 31.3102 93.4415 34.9982 94.5779L35.5871 92.6666ZM30.6283 101.3C30.6283 98.1395 32.7143 95.4632 35.5871 94.5779L34.9982 92.6666C31.3103 93.803 28.6283 97.2372 28.6283 101.3H30.6283ZM37.6615 108.334C33.7772 108.334 30.6283 105.185 30.6283 101.3H28.6283C28.6283 106.289 32.6726 110.334 37.6615 110.334V108.334ZM90.2502 108.334H37.6615V110.334H90.2502V108.334ZM97.2834 101.3C97.2834 105.185 94.1345 108.334 90.2502 108.334V110.334C95.2391 110.334 99.2834 106.289 99.2834 101.3H97.2834ZM92.3244 94.5779C95.1973 95.4631 97.2834 98.1395 97.2834 101.3H99.2834C99.2834 97.2372 96.6013 93.8029 92.9133 92.6665L92.3244 94.5779ZM97.2832 85.944C97.2832 89.1049 95.1972 91.7813 92.3244 92.6665L92.9133 94.5778C96.6012 93.4414 99.2832 90.0072 99.2832 85.944H97.2832ZM90.25 78.9108C94.1343 78.9108 97.2832 82.0596 97.2832 85.944H99.2832C99.2832 80.9551 95.2389 76.9108 90.25 76.9108V78.9108ZM37.6613 78.9108H90.25V76.9108H37.6613V78.9108Z" fill="#F47D45" mask="url(#path-1-inside-1_396:1229)"/>
<circle cx="97.8026" cy="26.1972" r="25.6972" fill="#F16F96" stroke="#F16F96"/>
<rect y="26.196" width="62.8732" height="45.4084" rx="8" fill="#125AB8"/>
</svg>
