<svg width="532" height="668" viewBox="0 0 532 668" fill="none" xmlns="http://www.w3.org/2000/svg">
<mask id="path-1-inside-1_529_2224" fill="white">
<path fill-rule="evenodd" clip-rule="evenodd" d="M205.01 466.059C212.334 466.059 218.271 471.996 218.271 479.32C218.271 485.279 214.341 490.32 208.932 491.993C214.341 493.665 218.271 498.706 218.271 504.665C218.271 511.989 212.334 517.927 205.01 517.927H118.192C110.868 517.927 104.931 511.989 104.931 504.665C104.931 498.706 108.861 493.665 114.27 491.993C108.861 490.32 104.93 485.279 104.93 479.32C104.93 471.996 110.868 466.059 118.192 466.059H205.01Z"/>
</mask>
<path d="M208.932 491.993L208.341 493.903L202.16 491.993L208.341 490.082L208.932 491.993ZM114.27 491.993L114.861 490.082L121.042 491.993L114.861 493.904L114.27 491.993ZM216.271 479.32C216.271 473.101 211.229 468.059 205.01 468.059V464.059C213.438 464.059 220.271 470.892 220.271 479.32H216.271ZM208.341 490.082C212.936 488.661 216.271 484.378 216.271 479.32H220.271C220.271 486.181 215.746 491.979 209.522 493.903L208.341 490.082ZM216.271 504.665C216.271 499.608 212.936 495.324 208.341 493.903L209.522 490.082C215.746 492.006 220.271 497.804 220.271 504.665H216.271ZM205.01 515.927C211.229 515.927 216.271 510.885 216.271 504.665H220.271C220.271 513.094 213.439 519.927 205.01 519.927V515.927ZM118.192 515.927H205.01V519.927H118.192V515.927ZM106.931 504.665C106.931 510.885 111.973 515.927 118.192 515.927V519.927C109.763 519.927 102.931 513.094 102.931 504.665H106.931ZM114.861 493.904C110.266 495.324 106.931 499.608 106.931 504.665H102.931C102.931 497.804 107.456 492.006 113.68 490.082L114.861 493.904ZM106.93 479.32C106.93 484.378 110.266 488.661 114.861 490.082L113.68 493.904C107.456 491.98 102.93 486.181 102.93 479.32H106.93ZM118.192 468.059C111.972 468.059 106.93 473.101 106.93 479.32H102.93C102.93 470.892 109.763 464.059 118.192 464.059V468.059ZM205.01 468.059H118.192V464.059H205.01V468.059Z" fill="#F47D45" mask="url(#path-1-inside-1_529_2224)"/>
<path d="M73.2886 387.626C73.2886 412.381 92.9545 432.415 117.172 432.415C141.389 432.415 161.055 412.381 161.055 387.626C161.055 362.87 141.389 342.836 117.172 342.836C92.9545 342.836 73.2886 362.87 73.2886 387.626Z" fill="#51C0A5" stroke="#51C0A5" stroke-width="2"/>
<path d="M186.63 152.784C186.63 177.54 206.296 197.574 230.513 197.574C254.731 197.574 274.396 177.54 274.396 152.784C274.396 128.028 254.731 107.994 230.513 107.994C206.296 107.994 186.63 128.028 186.63 152.784Z" stroke="#F16F96" stroke-width="2"/>
<path d="M399.711 663.272C399.711 688.028 419.376 708.062 443.594 708.062C467.811 708.062 487.477 688.028 487.477 663.272C487.477 638.517 467.811 618.482 443.594 618.482C419.376 618.482 399.711 638.517 399.711 663.272Z" stroke="#F16F96" stroke-width="2"/>
<path d="M-34.6118 454.723C-34.6118 479.479 -14.9459 499.513 9.27127 499.513C33.4884 499.513 53.1543 479.479 53.1543 454.723C53.1543 429.968 33.4884 409.934 9.27127 409.934C-14.9459 409.934 -34.6118 429.968 -34.6118 454.723Z" stroke="#F16F96" stroke-width="2"/>
<g filter="url(#filter0_d_529_2224)">
<rect x="-1" y="1" width="113.154" height="53.3104" rx="14" transform="matrix(-1 0 0 1 298.785 327.328)" stroke="#006FB9" stroke-width="2" shape-rendering="crispEdges"/>
</g>
<g filter="url(#filter1_d_529_2224)">
<path d="M347.121 372.212C347.121 396.967 366.787 417.001 391.004 417.001C415.221 417.001 434.887 396.967 434.887 372.212C434.887 347.456 415.221 327.422 391.004 327.422C366.787 327.422 347.121 347.456 347.121 372.212Z" stroke="#51C0A5" stroke-width="2" shape-rendering="crispEdges"/>
</g>
<rect x="-1" y="1" width="113.154" height="53.3104" rx="14" transform="matrix(-1 0 0 1 530 524.088)" fill="#006FB9" stroke="#006FB9" stroke-width="2"/>
<g filter="url(#filter2_d_529_2224)">
<rect width="115.154" height="55.3104" rx="15" transform="matrix(-1 0 0 1 139.387 557.637)" fill="#006FB9"/>
<rect x="-1" y="1" width="113.154" height="53.3104" rx="14" transform="matrix(-1 0 0 1 137.387 557.637)" stroke="#006FB9" stroke-width="2"/>
</g>
<g filter="url(#filter3_d_529_2224)">
<mask id="path-12-inside-2_529_2224" fill="white">
<path fill-rule="evenodd" clip-rule="evenodd" d="M111.617 124.223C118.941 124.223 124.879 130.16 124.879 137.484C124.879 143.443 120.948 148.484 115.539 150.157C120.949 151.829 124.879 156.87 124.879 162.829C124.879 170.153 118.941 176.091 111.617 176.091H24.7997C17.4754 176.091 11.5379 170.153 11.5379 162.829C11.5379 156.87 15.4681 151.829 20.8778 150.157C15.468 148.485 11.5377 143.444 11.5377 137.484C11.5377 130.16 17.4752 124.223 24.7995 124.223H111.617Z"/>
</mask>
<path d="M115.539 150.157L114.948 152.068L108.767 150.157L114.948 148.246L115.539 150.157ZM20.8778 150.157L21.4685 148.246L27.6497 150.157L21.4685 152.068L20.8778 150.157ZM122.879 137.484C122.879 131.265 117.837 126.223 111.617 126.223V122.223C120.046 122.223 126.879 129.056 126.879 137.484H122.879ZM114.948 148.246C119.544 146.825 122.879 142.542 122.879 137.484H126.879C126.879 144.345 122.353 150.144 116.129 152.068L114.948 148.246ZM122.879 162.829C122.879 157.772 119.544 153.488 114.948 152.068L116.129 148.246C122.353 150.17 126.879 155.968 126.879 162.829H122.879ZM111.617 174.091C117.837 174.091 122.879 169.049 122.879 162.829H126.879C126.879 171.258 120.046 178.091 111.617 178.091V174.091ZM24.7997 174.091H111.617V178.091H24.7997V174.091ZM13.5379 162.829C13.5379 169.049 18.58 174.091 24.7997 174.091V178.091C16.3709 178.091 9.53793 171.258 9.53793 162.829H13.5379ZM21.4685 152.068C16.873 153.488 13.5379 157.772 13.5379 162.829H9.53793C9.53793 155.969 14.0633 150.17 20.2871 148.246L21.4685 152.068ZM13.5377 137.484C13.5377 142.542 16.8728 146.825 21.4685 148.246L20.2871 152.068C14.0632 150.144 9.53769 144.345 9.53769 137.484H13.5377ZM24.7995 126.223C18.5798 126.223 13.5377 131.265 13.5377 137.484H9.53769C9.53769 129.056 16.3706 122.223 24.7995 122.223V126.223ZM111.617 126.223H24.7995V122.223H111.617V126.223Z" fill="#F47D45" mask="url(#path-12-inside-2_529_2224)"/>
</g>
<path d="M-20.1039 45.7898C-20.1039 70.5454 -0.43808 90.5795 23.7791 90.5795C47.9962 90.5795 67.6621 70.5454 67.6621 45.7898C67.6621 21.0341 47.9962 1 23.7791 1C-0.43808 1 -20.1039 21.0341 -20.1039 45.7898Z" fill="#51C0A5" stroke="#51C0A5" stroke-width="2"/>
<rect x="-1" y="1" width="113.154" height="53.3104" rx="14" transform="matrix(-1 0 0 1 52.1543 264.764)" stroke="#006FB9" stroke-width="2"/>
<path fill-rule="evenodd" clip-rule="evenodd" d="M226.685 220.334C236.06 220.334 243.66 227.934 243.66 237.309C243.66 244.937 238.629 251.389 231.705 253.53C238.629 255.67 243.66 262.123 243.66 269.75C243.66 279.125 236.06 286.725 226.685 286.725H115.559C106.184 286.725 98.5837 279.125 98.5837 269.75C98.5837 262.123 103.614 255.67 110.539 253.53C103.614 251.389 98.5835 244.937 98.5835 237.309C98.5835 227.934 106.183 220.334 115.559 220.334H226.685Z" fill="#D70858"/>
<g filter="url(#filter4_d_529_2224)">
<ellipse rx="44.883" ry="45.7898" transform="matrix(-1 0 0 1 333.881 491.899)" fill="#D70858"/>
</g>
<mask id="path-18-inside-3_529_2224" fill="white">
<path fill-rule="evenodd" clip-rule="evenodd" d="M330.052 579.398C339.427 579.398 347.027 586.998 347.027 596.374C347.027 604.001 341.997 610.453 335.072 612.594C341.997 614.735 347.027 621.187 347.027 628.815C347.027 638.19 339.427 645.79 330.052 645.79H218.926C209.551 645.79 201.951 638.19 201.951 628.815C201.951 621.187 206.982 614.735 213.906 612.594C206.981 610.454 201.951 604.001 201.951 596.374C201.951 586.998 209.551 579.398 218.926 579.398H330.052Z"/>
</mask>
<path fill-rule="evenodd" clip-rule="evenodd" d="M330.052 579.398C339.427 579.398 347.027 586.998 347.027 596.374C347.027 604.001 341.997 610.453 335.072 612.594C341.997 614.735 347.027 621.187 347.027 628.815C347.027 638.19 339.427 645.79 330.052 645.79H218.926C209.551 645.79 201.951 638.19 201.951 628.815C201.951 621.187 206.982 614.735 213.906 612.594C206.981 610.454 201.951 604.001 201.951 596.374C201.951 586.998 209.551 579.398 218.926 579.398H330.052Z" fill="#F47D45"/>
<path d="M335.072 612.594L334.482 614.505L328.3 612.594L334.481 610.683L335.072 612.594ZM213.906 612.594L214.497 610.683L220.678 612.594L214.497 614.505L213.906 612.594ZM345.027 596.374C345.027 588.103 338.323 581.398 330.052 581.398V577.398C340.532 577.398 349.027 585.894 349.027 596.374H345.027ZM334.481 610.683C340.592 608.794 345.027 603.099 345.027 596.374H349.027C349.027 604.903 343.401 612.113 335.663 614.505L334.481 610.683ZM345.027 628.815C345.027 622.089 340.592 616.394 334.482 614.505L335.663 610.683C343.401 613.076 349.027 620.285 349.027 628.815H345.027ZM330.052 643.79C338.323 643.79 345.027 637.085 345.027 628.815H349.027C349.027 639.294 340.532 647.79 330.052 647.79V643.79ZM218.926 643.79H330.052V647.79H218.926V643.79ZM203.951 628.815C203.951 637.085 210.655 643.79 218.926 643.79V647.79C208.446 647.79 199.951 639.294 199.951 628.815H203.951ZM214.497 614.505C208.386 616.394 203.951 622.089 203.951 628.815H199.951C199.951 620.286 205.577 613.076 213.315 610.683L214.497 614.505ZM203.951 596.374C203.951 603.099 208.386 608.794 214.497 610.683L213.315 614.505C205.577 612.113 199.951 604.903 199.951 596.374H203.951ZM218.926 581.398C210.655 581.398 203.951 588.103 203.951 596.374H199.951C199.951 585.894 208.446 577.398 218.926 577.398V581.398ZM330.052 581.398H218.926V577.398H330.052V581.398Z" fill="#F47D45" mask="url(#path-18-inside-3_529_2224)"/>
<defs>
<filter id="filter0_d_529_2224" x="181.631" y="327.328" width="123.154" height="63.3105" filterUnits="userSpaceOnUse" color-interpolation-filters="sRGB">
<feFlood flood-opacity="0" result="BackgroundImageFix"/>
<feColorMatrix in="SourceAlpha" type="matrix" values="0 0 0 0 0 0 0 0 0 0 0 0 0 0 0 0 0 0 127 0" result="hardAlpha"/>
<feOffset dy="4"/>
<feGaussianBlur stdDeviation="2"/>
<feComposite in2="hardAlpha" operator="out"/>
<feColorMatrix type="matrix" values="0 0 0 0 0 0 0 0 0 0 0 0 0 0 0 0 0 0 0.25 0"/>
<feBlend mode="normal" in2="BackgroundImageFix" result="effect1_dropShadow_529_2224"/>
<feBlend mode="normal" in="SourceGraphic" in2="effect1_dropShadow_529_2224" result="shape"/>
</filter>
<filter id="filter1_d_529_2224" x="342.121" y="326.422" width="97.7656" height="99.5801" filterUnits="userSpaceOnUse" color-interpolation-filters="sRGB">
<feFlood flood-opacity="0" result="BackgroundImageFix"/>
<feColorMatrix in="SourceAlpha" type="matrix" values="0 0 0 0 0 0 0 0 0 0 0 0 0 0 0 0 0 0 127 0" result="hardAlpha"/>
<feOffset dy="4"/>
<feGaussianBlur stdDeviation="2"/>
<feComposite in2="hardAlpha" operator="out"/>
<feColorMatrix type="matrix" values="0 0 0 0 0 0 0 0 0 0 0 0 0 0 0 0 0 0 0.25 0"/>
<feBlend mode="normal" in2="BackgroundImageFix" result="effect1_dropShadow_529_2224"/>
<feBlend mode="normal" in="SourceGraphic" in2="effect1_dropShadow_529_2224" result="shape"/>
</filter>
<filter id="filter2_d_529_2224" x="20.2324" y="557.637" width="123.154" height="63.3105" filterUnits="userSpaceOnUse" color-interpolation-filters="sRGB">
<feFlood flood-opacity="0" result="BackgroundImageFix"/>
<feColorMatrix in="SourceAlpha" type="matrix" values="0 0 0 0 0 0 0 0 0 0 0 0 0 0 0 0 0 0 127 0" result="hardAlpha"/>
<feOffset dy="4"/>
<feGaussianBlur stdDeviation="2"/>
<feComposite in2="hardAlpha" operator="out"/>
<feColorMatrix type="matrix" values="0 0 0 0 0 0 0 0 0 0 0 0 0 0 0 0 0 0 0.25 0"/>
<feBlend mode="normal" in2="BackgroundImageFix" result="effect1_dropShadow_529_2224"/>
<feBlend mode="normal" in="SourceGraphic" in2="effect1_dropShadow_529_2224" result="shape"/>
</filter>
<filter id="filter3_d_529_2224" x="7.53711" y="124.223" width="121.342" height="59.8691" filterUnits="userSpaceOnUse" color-interpolation-filters="sRGB">
<feFlood flood-opacity="0" result="BackgroundImageFix"/>
<feColorMatrix in="SourceAlpha" type="matrix" values="0 0 0 0 0 0 0 0 0 0 0 0 0 0 0 0 0 0 127 0" result="hardAlpha"/>
<feOffset dy="4"/>
<feGaussianBlur stdDeviation="2"/>
<feComposite in2="hardAlpha" operator="out"/>
<feColorMatrix type="matrix" values="0 0 0 0 0 0 0 0 0 0 0 0 0 0 0 0 0 0 0.25 0"/>
<feBlend mode="normal" in2="BackgroundImageFix" result="effect1_dropShadow_529_2224"/>
<feBlend mode="normal" in="SourceGraphic" in2="effect1_dropShadow_529_2224" result="shape"/>
</filter>
<filter id="filter4_d_529_2224" x="284.998" y="446.109" width="97.7656" height="99.5801" filterUnits="userSpaceOnUse" color-interpolation-filters="sRGB">
<feFlood flood-opacity="0" result="BackgroundImageFix"/>
<feColorMatrix in="SourceAlpha" type="matrix" values="0 0 0 0 0 0 0 0 0 0 0 0 0 0 0 0 0 0 127 0" result="hardAlpha"/>
<feOffset dy="4"/>
<feGaussianBlur stdDeviation="2"/>
<feComposite in2="hardAlpha" operator="out"/>
<feColorMatrix type="matrix" values="0 0 0 0 0 0 0 0 0 0 0 0 0 0 0 0 0 0 0.25 0"/>
<feBlend mode="normal" in2="BackgroundImageFix" result="effect1_dropShadow_529_2224"/>
<feBlend mode="normal" in="SourceGraphic" in2="effect1_dropShadow_529_2224" result="shape"/>
</filter>
</defs>
</svg>
