<svg width="229" height="74" viewBox="0 0 229 74" fill="none" xmlns="http://www.w3.org/2000/svg">
<path d="M10.1761 38.4091C13.9602 38.4091 15.2386 36.0568 15.9034 34.983H16.2614V38H19.1761V11.8182H16.1591V21.483H15.9034C15.2386 20.4602 14.0625 18.108 10.2273 18.108C5.26705 18.108 1.84091 22.0455 1.84091 28.233C1.84091 34.4716 5.26705 38.4091 10.1761 38.4091ZM10.5852 35.6989C6.80114 35.6989 4.85795 32.375 4.85795 28.1818C4.85795 24.0398 6.75 20.8182 10.5852 20.8182C14.267 20.8182 16.2102 23.7841 16.2102 28.1818C16.2102 32.6307 14.2159 35.6989 10.5852 35.6989ZM30.8991 38.4602C34.3253 38.4602 36.1151 36.6193 36.7287 35.3409H36.8821V38H39.8991V25.0625C39.8991 18.8239 35.1435 18.108 32.6378 18.108C29.6719 18.108 26.2969 19.1307 24.7628 22.7102L27.6264 23.733C28.2912 22.3011 29.8636 20.767 32.7401 20.767C35.5142 20.767 36.8821 22.2372 36.8821 24.7557V24.858C36.8821 26.3153 35.3991 26.1875 31.8196 26.6477C28.1761 27.1207 24.2003 27.9261 24.2003 32.4261C24.2003 36.2614 27.1662 38.4602 30.8991 38.4602ZM31.3594 35.75C28.956 35.75 27.2173 34.6761 27.2173 32.5795C27.2173 30.2784 29.3139 29.5625 31.6662 29.2557C32.9446 29.1023 36.3707 28.7443 36.8821 28.1307V30.892C36.8821 33.3466 34.9389 35.75 31.3594 35.75ZM59.315 22.7614C58.369 19.9744 56.2468 18.108 52.3604 18.108C48.2184 18.108 45.1502 20.4602 45.1502 23.7841C45.1502 26.4943 46.761 28.3097 50.3661 29.1534L53.6389 29.9205C55.6204 30.3807 56.5536 31.3267 56.5536 32.6818C56.5536 34.3693 54.7639 35.75 51.9514 35.75C49.484 35.75 47.9371 34.6889 47.4002 32.5795L44.5366 33.2955C45.2397 36.6321 47.9883 38.4091 52.0025 38.4091C56.5664 38.4091 59.6729 35.9162 59.6729 32.5284C59.6729 29.7926 57.9599 28.0668 54.457 27.2102L51.5423 26.4943C49.2156 25.919 48.1673 25.1392 48.1673 23.6307C48.1673 21.9432 49.957 20.7159 52.3604 20.7159C54.994 20.7159 56.0806 22.1733 56.6048 23.5284L59.315 22.7614ZM67.2315 26.1875C67.2315 22.7614 69.4176 20.8182 72.3963 20.8182C75.2344 20.8182 76.9474 22.608 76.9474 25.7273V38H79.9645V25.5227C79.9645 20.473 77.2798 18.108 73.2656 18.108C70.1719 18.108 68.4077 19.3991 67.4872 21.4318H67.2315V11.8182H64.2145V38H67.2315V26.1875ZM85.8931 38H88.8079V34.983H89.1658C89.8306 36.0568 91.109 38.4091 94.8931 38.4091C99.8022 38.4091 103.228 34.4716 103.228 28.233C103.228 22.0455 99.8022 18.108 94.842 18.108C91.0067 18.108 89.8306 20.4602 89.1658 21.483H88.9102V11.8182H85.8931V38ZM88.859 28.1818C88.859 23.7841 90.8022 20.8182 94.484 20.8182C98.3192 20.8182 100.211 24.0398 100.211 28.1818C100.211 32.375 98.2681 35.6989 94.484 35.6989C90.8533 35.6989 88.859 32.6307 88.859 28.1818ZM164.247 38.4602C167.673 38.4602 169.463 36.6193 170.076 35.3409H170.23V38H173.247V25.0625C173.247 18.8239 168.491 18.108 165.985 18.108C163.02 18.108 159.645 19.1307 158.11 22.7102L160.974 23.733C161.639 22.3011 163.211 20.767 166.088 20.767C168.862 20.767 170.23 22.2372 170.23 24.7557V24.858C170.23 26.3153 168.747 26.1875 165.167 26.6477C161.524 27.1207 157.548 27.9261 157.548 32.4261C157.548 36.2614 160.514 38.4602 164.247 38.4602ZM164.707 35.75C162.304 35.75 160.565 34.6761 160.565 32.5795C160.565 30.2784 162.662 29.5625 165.014 29.2557C166.292 29.1023 169.718 28.7443 170.23 28.1307V30.892C170.23 33.3466 168.287 35.75 164.707 35.75ZM178.754 38H181.771V25.5739C181.771 22.9148 183.867 20.9716 186.731 20.9716C187.536 20.9716 188.367 21.125 188.572 21.1761V18.108C188.227 18.0824 187.434 18.0568 186.987 18.0568C184.634 18.0568 182.589 19.3864 181.873 21.3295H181.668V18.3636H178.754V38ZM198.965 38.4091C202.749 38.4091 204.028 36.0568 204.692 34.983H205.05V38H207.965V11.8182H204.948V21.483H204.692C204.028 20.4602 202.852 18.108 199.016 18.108C194.056 18.108 190.63 22.0455 190.63 28.233C190.63 34.4716 194.056 38.4091 198.965 38.4091ZM199.374 35.6989C195.59 35.6989 193.647 32.375 193.647 28.1818C193.647 24.0398 195.539 20.8182 199.374 20.8182C203.056 20.8182 204.999 23.7841 204.999 28.1818C204.999 32.6307 203.005 35.6989 199.374 35.6989Z" fill="#D70858"/>
<path d="M10.2666 57.9838C9.7069 56.3349 8.45129 55.2305 6.15185 55.2305C3.70114 55.2305 1.8858 56.6223 1.8858 58.5889C1.8858 60.1925 2.83886 61.2665 4.97188 61.7658L6.90825 62.2196C8.08065 62.4919 8.63282 63.0516 8.63282 63.8534C8.63282 64.8518 7.57387 65.6688 5.90981 65.6688C4.44997 65.6688 3.53474 65.0409 3.21705 63.7929L1.52273 64.2165C1.93875 66.1907 3.56499 67.242 5.94006 67.242C8.64038 67.242 10.4784 65.7671 10.4784 63.7626C10.4784 62.144 9.46485 61.1228 7.39234 60.6161L5.66776 60.1925C4.29113 59.8521 3.67089 59.3907 3.67089 58.4982C3.67089 57.4997 4.72984 56.7736 6.15185 56.7736C7.71002 56.7736 8.35295 57.6359 8.66308 58.4376L10.2666 57.9838ZM30.1994 55.3818H27.7185V52.5983H25.9334V55.3818H24.1786V56.8946H25.9334V64.156C25.9334 66.1831 27.5672 67.1513 29.08 67.1513C29.7456 67.1513 30.1692 67.0303 30.4112 66.9395L30.0482 65.3359C29.8969 65.3662 29.6548 65.4267 29.2615 65.4267C28.4749 65.4267 27.7185 65.1847 27.7185 63.6719V56.8946H30.1994V55.3818ZM44.8659 67H46.651V59.6479C46.651 58.0746 47.8915 56.9249 49.5858 56.9249C50.0623 56.9249 50.554 57.0156 50.675 57.0459V55.2305C50.4708 55.2154 50.0018 55.2003 49.7371 55.2003C48.3453 55.2003 47.1351 55.9869 46.7115 57.1366H46.5905V55.3818H44.8659V67ZM68.1911 67.2723C70.2183 67.2723 71.2772 66.1831 71.6403 65.4267H71.731V67H73.5161V59.3453C73.5161 55.6541 70.7023 55.2305 69.2198 55.2305C67.465 55.2305 65.4681 55.8357 64.5604 57.9536L66.2548 58.5587C66.6481 57.7115 67.5784 56.8038 69.2803 56.8038C70.9217 56.8038 71.731 57.6737 71.731 59.1638V59.2243C71.731 60.0866 70.8536 60.0109 68.7357 60.2832C66.58 60.5631 64.2276 61.0396 64.2276 63.7021C64.2276 65.9713 65.9825 67.2723 68.1911 67.2723ZM68.4634 65.6688C67.0414 65.6688 66.0127 65.0334 66.0127 63.7929C66.0127 62.4314 67.2532 62.0078 68.645 61.8263C69.4014 61.7355 71.4285 61.5237 71.731 61.1607V62.7945C71.731 64.2467 70.5813 65.6688 68.4634 65.6688ZM93.8082 55.3818H91.3273V52.5983H89.5422V55.3818H87.7874V56.8946H89.5422V64.156C89.5422 66.1831 91.176 67.1513 92.6888 67.1513C93.3544 67.1513 93.778 67.0303 94.02 66.9395L93.657 65.3359C93.5057 65.3662 93.2636 65.4267 92.8703 65.4267C92.0837 65.4267 91.3273 65.1847 91.3273 63.6719V56.8946H93.8082V55.3818ZM113.346 67.242C115.706 67.242 117.43 66.0621 117.975 64.3072L116.25 63.8232C115.797 65.0334 114.745 65.6385 113.346 65.6385C111.251 65.6385 109.806 64.2846 109.723 61.796H118.156V61.0396C118.156 56.7131 115.585 55.2305 113.164 55.2305C110.018 55.2305 107.93 57.7115 107.93 61.2817C107.93 64.8518 109.987 67.242 113.346 67.242ZM109.723 60.253C109.844 58.4452 111.122 56.8341 113.164 56.8341C115.101 56.8341 116.341 58.2864 116.341 60.253H109.723ZM137.724 67.242C140.084 67.242 141.809 66.0621 142.353 64.3072L140.629 63.8232C140.175 65.0334 139.124 65.6385 137.724 65.6385C135.629 65.6385 134.184 64.2846 134.101 61.796H142.535V61.0396C142.535 56.7131 139.963 55.2305 137.543 55.2305C134.396 55.2305 132.309 57.7115 132.309 61.2817C132.309 64.8518 134.366 67.242 137.724 67.242ZM134.101 60.253C134.222 58.4452 135.501 56.8341 137.543 56.8341C139.479 56.8341 140.72 58.2864 140.72 60.253H134.101ZM161.921 71.5989C164.705 71.5989 166.944 70.3281 166.944 67.3328V55.3818H165.219V57.2274H165.038C164.644 56.6223 163.918 55.2305 161.649 55.2305C158.714 55.2305 156.687 57.5602 156.687 61.1304C156.687 64.7611 158.805 66.8185 161.619 66.8185C163.888 66.8185 164.614 65.4872 165.007 64.8518H165.159V67.2118C165.159 69.1482 163.797 70.0256 161.921 70.0256C159.811 70.0256 159.07 68.9137 158.593 68.2707L157.171 69.2692C157.897 70.487 159.327 71.5989 161.921 71.5989ZM161.861 65.2149C159.622 65.2149 158.472 63.5206 158.472 61.1001C158.472 58.7402 159.592 56.8341 161.861 56.8341C164.039 56.8341 165.189 58.5889 165.189 61.1001C165.189 63.6719 164.009 65.2149 161.861 65.2149ZM182.193 67H183.978V55.3818H182.193V67ZM183.1 53.4455C183.796 53.4455 184.371 52.9009 184.371 52.2352C184.371 51.5696 183.796 51.025 183.1 51.025C182.404 51.025 181.83 51.5696 181.83 52.2352C181.83 52.9009 182.404 53.4455 183.1 53.4455ZM202.647 67.2723C204.675 67.2723 205.733 66.1831 206.097 65.4267H206.187V67H207.972V59.3453C207.972 55.6541 205.159 55.2305 203.676 55.2305C201.921 55.2305 199.924 55.8357 199.017 57.9536L200.711 58.5587C201.104 57.7115 202.035 56.8038 203.737 56.8038C205.378 56.8038 206.187 57.6737 206.187 59.1638V59.2243C206.187 60.0866 205.31 60.0109 203.192 60.2832C201.036 60.5631 198.684 61.0396 198.684 63.7021C198.684 65.9713 200.439 67.2723 202.647 67.2723ZM202.92 65.6688C201.498 65.6688 200.469 65.0334 200.469 63.7929C200.469 62.4314 201.709 62.0078 203.101 61.8263C203.858 61.7355 205.885 61.5237 206.187 61.1607V62.7945C206.187 64.2467 205.038 65.6688 202.92 65.6688Z" fill="#D70858"/>
<g filter="url(#filter0_d_529_2220)">
<path d="M127.305 9.08871C128.978 8.14787 131.022 8.14787 132.695 9.08871L143.15 14.9658C144.882 15.9397 145.954 17.7726 145.954 19.7601V31.2399C145.954 33.2274 144.882 35.0603 143.15 36.0342L132.695 41.9113C131.022 42.8521 128.978 42.8521 127.305 41.9113L116.85 36.0342C115.118 35.0603 114.046 33.2274 114.046 31.2399V19.7601C114.046 17.7726 115.118 15.9397 116.85 14.9658L127.305 9.08871Z" stroke="#D70858" shape-rendering="crispEdges"/>
</g>
<defs>
<filter id="filter0_d_529_2220" x="109.545" y="7.88281" width="40.9102" height="43.2344" filterUnits="userSpaceOnUse" color-interpolation-filters="sRGB">
<feFlood flood-opacity="0" result="BackgroundImageFix"/>
<feColorMatrix in="SourceAlpha" type="matrix" values="0 0 0 0 0 0 0 0 0 0 0 0 0 0 0 0 0 0 127 0" result="hardAlpha"/>
<feOffset dy="4"/>
<feGaussianBlur stdDeviation="2"/>
<feComposite in2="hardAlpha" operator="out"/>
<feColorMatrix type="matrix" values="0 0 0 0 0 0 0 0 0 0 0 0 0 0 0 0 0 0 0.25 0"/>
<feBlend mode="normal" in2="BackgroundImageFix" result="effect1_dropShadow_529_2220"/>
<feBlend mode="normal" in="SourceGraphic" in2="effect1_dropShadow_529_2220" result="shape"/>
</filter>
</defs>
</svg>
