<svg width="24" height="24" viewBox="0 0 24 24" fill="none" xmlns="http://www.w3.org/2000/svg">
<path fill-rule="evenodd" clip-rule="evenodd" d="M11.247 23.6578C11.3409 23.7653 11.4566 23.8513 11.5865 23.9103C11.7164 23.9693 11.8574 23.9998 12 23.9998C12.1426 23.9998 12.2836 23.9693 12.4135 23.9103C12.5434 23.8513 12.6591 23.7653 12.753 23.6578L15.953 19.999H20C20.7956 19.999 21.5587 19.683 22.1213 19.1204C22.6839 18.5578 23 17.7948 23 16.9992V2.99985C23 2.20424 22.6839 1.44122 22.1213 0.878637C21.5587 0.316055 20.7956 0 20 0L4 0C3.20435 0 2.44129 0.316055 1.87868 0.878637C1.31607 1.44122 1 2.20424 1 2.99985V16.9992C1 17.7948 1.31607 18.5578 1.87868 19.1204C2.44129 19.683 3.20435 19.999 4 19.999H8.046L11.247 23.6578ZM14.747 18.3411L12 21.481L9.253 18.3411C9.15914 18.2337 9.04339 18.1476 8.91351 18.0886C8.78364 18.0296 8.64264 17.9991 8.5 17.9991H4C3.73478 17.9991 3.48043 17.8938 3.29289 17.7062C3.10536 17.5187 3 17.2644 3 16.9992V2.99985C3 2.73465 3.10536 2.48031 3.29289 2.29278C3.48043 2.10525 3.73478 1.9999 4 1.9999H20C20.2652 1.9999 20.5196 2.10525 20.7071 2.29278C20.8946 2.48031 21 2.73465 21 2.99985V16.9992C21 17.2644 20.8946 17.5187 20.7071 17.7062C20.5196 17.8938 20.2652 17.9991 20 17.9991H15.5C15.3574 17.999 15.2165 18.0294 15.0866 18.0882C14.9567 18.147 14.841 18.2329 14.747 18.3401V18.3411ZM7 6.99966C6.73478 6.99966 6.48043 7.10501 6.29289 7.29254C6.10536 7.48007 6 7.73441 6 7.99961C6 8.26481 6.10536 8.51916 6.29289 8.70668C6.48043 8.89421 6.73478 8.99956 7 8.99956H17C17.2652 8.99956 17.5196 8.89421 17.7071 8.70668C17.8946 8.51916 18 8.26481 18 7.99961C18 7.73441 17.8946 7.48007 17.7071 7.29254C17.5196 7.10501 17.2652 6.99966 17 6.99966H7ZM7 10.9995C6.73478 10.9995 6.48043 11.1048 6.29289 11.2923C6.10536 11.4799 6 11.7342 6 11.9994C6 12.2646 6.10536 12.519 6.29289 12.7065C6.48043 12.894 6.73478 12.9994 7 12.9994H17C17.2652 12.9994 17.5196 12.894 17.7071 12.7065C17.8946 12.519 18 12.2646 18 11.9994C18 11.7342 17.8946 11.4799 17.7071 11.2923C17.5196 11.1048 17.2652 10.9995 17 10.9995H7Z" fill="#232222"/>
</svg>
